<svg width="142" height="50" viewBox="0 0 142 50" fill="none" xmlns="http://www.w3.org/2000/svg">
<path d="M5.43701 6.056C5.02901 6.056 4.71301 5.916 4.48901 5.636C4.26501 5.356 4.15301 5.036 4.15301 4.676C4.15301 4.124 4.27701 3.612 4.52501 3.14C4.78101 2.66 5.13701 2.252 5.59301 1.916C6.05701 1.572 6.60501 1.336 7.23701 1.208L7.41701 1.736C7.15301 1.856 6.92501 2.02 6.73301 2.228C6.54101 2.436 6.39301 2.656 6.28901 2.888C6.19301 3.12 6.14501 3.336 6.14501 3.536L6.98501 4.616C6.97701 4.872 6.90101 5.112 6.75701 5.336C6.61301 5.552 6.42501 5.728 6.19301 5.864C5.96101 5.992 5.70901 6.056 5.43701 6.056ZM1.78901 6.056C1.38101 6.056 1.06501 5.916 0.841008 5.636C0.617008 5.356 0.505008 5.036 0.505008 4.676C0.505008 4.124 0.629008 3.612 0.877008 3.14C1.13301 2.66 1.48901 2.252 1.94501 1.916C2.40901 1.572 2.95701 1.336 3.58901 1.208L3.76901 1.736C3.50501 1.856 3.27701 2.02 3.08501 2.228C2.90101 2.436 2.75701 2.656 2.65301 2.888C2.54901 3.12 2.49701 3.336 2.49701 3.536L3.33701 4.616C3.32901 4.872 3.25301 5.112 3.10901 5.336C2.96501 5.552 2.77701 5.728 2.54501 5.864C2.31301 5.992 2.06101 6.056 1.78901 6.056ZM15.0079 11.3C14.2879 11.3 13.6959 11.248 13.2319 11.144C12.7679 11.048 12.4079 10.912 12.1519 10.736C11.8959 10.56 11.7159 10.36 11.6119 10.136C11.5159 9.904 11.4679 9.66 11.4679 9.404C11.4679 9.164 11.5039 8.924 11.5759 8.684C11.6559 8.444 11.7919 8.196 11.9839 7.94C12.0959 8.172 12.2799 8.396 12.5359 8.612C12.7919 8.828 13.0799 9.004 13.3999 9.14C13.7279 9.276 14.0479 9.344 14.3599 9.344C14.7759 9.344 15.1199 9.28 15.3919 9.152C15.6719 9.016 15.8719 8.808 15.9919 8.528C14.6319 8.344 13.6119 7.968 12.9319 7.4C12.2519 6.824 11.9119 6.148 11.9119 5.372C11.9119 4.916 12.0039 4.516 12.1879 4.172C12.3799 3.828 12.6319 3.54 12.9439 3.308C13.2559 3.068 13.5959 2.876 13.9639 2.732C14.3319 2.58 14.6959 2.472 15.0559 2.408C15.4159 2.336 15.7359 2.3 16.0159 2.3C17.0319 2.3 17.8119 2.42 18.3559 2.66C18.9079 2.892 19.1839 3.304 19.1839 3.896C19.1839 4.24 19.1039 4.528 18.9439 4.76C18.7919 4.992 18.5879 5.168 18.3319 5.288C18.0839 5.4 17.8119 5.456 17.5159 5.456C17.1639 5.456 16.8199 5.356 16.4839 5.156C16.1479 4.948 15.9119 4.66 15.7759 4.292C15.4959 4.292 15.2199 4.388 14.9479 4.58C14.6759 4.764 14.4999 5.02 14.4199 5.348C15.4839 5.604 16.3399 5.888 16.9879 6.2C17.6439 6.512 18.1199 6.864 18.4159 7.256C18.7119 7.648 18.8599 8.096 18.8599 8.6C18.8599 9.184 18.6879 9.676 18.3439 10.076C17.9999 10.476 17.5359 10.78 16.9519 10.988C16.3759 11.196 15.7279 11.3 15.0079 11.3ZM23.2456 11.3C22.5416 11.3 21.9336 11.168 21.4216 10.904C20.9176 10.632 20.5296 10.26 20.2576 9.788C19.9856 9.316 19.8496 8.768 19.8496 8.144C19.8496 7.28 20.0376 6.524 20.4136 5.876C20.7976 5.22 21.3216 4.712 21.9856 4.352C22.6496 3.984 23.4056 3.8 24.2536 3.8C24.3896 3.8 24.5256 3.808 24.6616 3.824C24.8056 3.832 24.9576 3.856 25.1176 3.896C25.1576 4.008 25.1896 4.144 25.2136 4.304C25.2376 4.456 25.2536 4.62 25.2616 4.796C25.3336 4.772 25.4096 4.752 25.4896 4.736C25.5776 4.72 25.6696 4.712 25.7656 4.712C26.0456 4.712 26.3096 4.788 26.5576 4.94C26.8056 5.084 27.0096 5.312 27.1696 5.624C27.3296 5.936 27.4096 6.332 27.4096 6.812C27.4096 7.524 27.2896 8.16 27.0496 8.72C26.8176 9.272 26.5016 9.74 26.1016 10.124C25.7016 10.508 25.2536 10.8 24.7576 11C24.2696 11.2 23.7656 11.3 23.2456 11.3ZM23.6176 9.824C23.8016 9.824 23.9936 9.78 24.1936 9.692C24.3936 9.604 24.5896 9.444 24.7816 9.212C24.9736 8.98 25.1336 8.652 25.2616 8.228C24.9176 8.012 24.6696 7.748 24.5176 7.436C24.3656 7.116 24.2896 6.764 24.2896 6.38C24.2896 6.268 24.3096 6.124 24.3496 5.948C24.3896 5.772 24.4576 5.592 24.5536 5.408C24.6576 5.224 24.7976 5.072 24.9736 4.952C24.4216 5.064 23.9696 5.232 23.6176 5.456C23.2656 5.68 22.9896 5.94 22.7896 6.236C22.5976 6.524 22.4616 6.824 22.3816 7.136C22.3096 7.44 22.2736 7.732 22.2736 8.012C22.2736 8.332 22.3256 8.632 22.4296 8.912C22.5336 9.184 22.6856 9.404 22.8856 9.572C23.0856 9.74 23.3296 9.824 23.6176 9.824ZM29.9517 11.3C29.4477 11.3 29.0877 11.172 28.8717 10.916C28.6557 10.66 28.5477 10.292 28.5477 9.812C28.5477 9.644 28.5717 9.388 28.6197 9.044C28.6677 8.692 28.7277 8.304 28.7997 7.88C28.8797 7.448 28.9637 7.016 29.0517 6.584C29.1397 6.152 29.2237 5.768 29.3037 5.432L28.6797 4.472C29.0077 4.288 29.3597 4.132 29.7357 4.004C30.1197 3.868 30.5077 3.8 30.8997 3.8C31.2357 3.8 31.4837 3.884 31.6437 4.052C31.8037 4.212 31.8837 4.432 31.8837 4.712C31.8837 4.92 31.8557 5.136 31.7997 5.36C31.7437 5.584 31.6797 5.776 31.6077 5.936L31.7277 5.996C32.1997 5.188 32.6957 4.62 33.2157 4.292C33.7357 3.964 34.2877 3.8 34.8717 3.8C35.2957 3.8 35.6437 3.908 35.9157 4.124C36.1877 4.332 36.3237 4.672 36.3237 5.144C36.3237 5.384 36.2837 5.648 36.2037 5.936L36.3237 5.996C36.7957 5.188 37.2917 4.62 37.8117 4.292C38.3317 3.964 38.8837 3.8 39.4677 3.8C39.9557 3.8 40.3197 3.92 40.5597 4.16C40.7997 4.392 40.9197 4.756 40.9197 5.252C40.9197 5.684 40.8597 6.144 40.7397 6.632C40.6277 7.112 40.5117 7.608 40.3917 8.12C40.2717 8.624 40.2117 9.124 40.2117 9.62C40.2117 10.116 40.2957 10.48 40.4637 10.712C40.0397 11.104 39.5997 11.3 39.1437 11.3C38.6397 11.3 38.2797 11.172 38.0637 10.916C37.8477 10.66 37.7397 10.292 37.7397 9.812C37.7397 9.548 37.7757 9.256 37.8477 8.936C37.9197 8.608 38.0037 8.276 38.0997 7.94C38.1957 7.604 38.2797 7.288 38.3517 6.992C38.4237 6.696 38.4597 6.44 38.4597 6.224C38.4597 6.056 38.4277 5.924 38.3637 5.828C38.3077 5.732 38.2037 5.684 38.0517 5.684C37.8357 5.684 37.5877 5.78 37.3077 5.972C37.0357 6.164 36.7677 6.436 36.5037 6.788C36.2477 7.132 36.0357 7.544 35.8677 8.024C35.6997 8.504 35.6157 9.036 35.6157 9.62C35.6157 10.116 35.6997 10.48 35.8677 10.712C35.4437 11.104 35.0037 11.3 34.5477 11.3C34.0437 11.3 33.6837 11.172 33.4677 10.916C33.2517 10.66 33.1437 10.292 33.1437 9.812C33.1437 9.548 33.1797 9.256 33.2517 8.936C33.3237 8.608 33.4077 8.276 33.5037 7.94C33.5997 7.604 33.6837 7.288 33.7557 6.992C33.8277 6.696 33.8637 6.44 33.8637 6.224C33.8637 6.056 33.8317 5.924 33.7677 5.828C33.7117 5.732 33.6077 5.684 33.4557 5.684C33.2397 5.684 32.9917 5.78 32.7117 5.972C32.4397 6.164 32.1717 6.436 31.9077 6.788C31.6517 7.132 31.4397 7.544 31.2717 8.024C31.1037 8.504 31.0197 9.036 31.0197 9.62C31.0197 10.116 31.1037 10.48 31.2717 10.712C30.8477 11.104 30.4077 11.3 29.9517 11.3ZM45.43 11.3C44.686 11.3 44.058 11.168 43.546 10.904C43.034 10.64 42.646 10.272 42.382 9.8C42.126 9.32 41.998 8.768 41.998 8.144C41.998 7.496 42.114 6.908 42.346 6.38C42.586 5.844 42.918 5.384 43.342 5C43.766 4.616 44.258 4.32 44.818 4.112C45.386 3.904 45.998 3.8 46.654 3.8C47.43 3.8 48.002 3.972 48.37 4.316C48.738 4.66 48.922 5.092 48.922 5.612C48.922 6.06 48.774 6.484 48.478 6.884C48.19 7.276 47.722 7.596 47.074 7.844C46.426 8.084 45.562 8.208 44.482 8.216C44.506 8.728 44.622 9.132 44.83 9.428C45.046 9.716 45.314 9.86 45.634 9.86C45.794 9.86 45.962 9.824 46.138 9.752C46.314 9.672 46.462 9.536 46.582 9.344C46.702 9.144 46.762 8.872 46.762 8.528C47.306 8.528 47.734 8.588 48.046 8.708C48.358 8.828 48.514 9.044 48.514 9.356C48.514 9.644 48.39 9.94 48.142 10.244C47.894 10.54 47.538 10.792 47.074 11C46.618 11.2 46.07 11.3 45.43 11.3ZM44.59 7.256C45.174 7.208 45.642 7.1 45.994 6.932C46.346 6.764 46.602 6.572 46.762 6.356C46.922 6.14 47.002 5.94 47.002 5.756C47.002 5.596 46.954 5.464 46.858 5.36C46.762 5.256 46.626 5.204 46.45 5.204C46.162 5.204 45.894 5.304 45.646 5.504C45.398 5.704 45.182 5.964 44.998 6.284C44.822 6.596 44.686 6.92 44.59 7.256ZM52.0687 11.3C51.5567 11.3 51.1927 11.148 50.9767 10.844C50.7607 10.54 50.6527 10.076 50.6527 9.452C50.6527 9.276 50.6727 9.028 50.7127 8.708C50.7527 8.38 50.8047 8.016 50.8687 7.616C50.9407 7.216 51.0087 6.82 51.0727 6.428C50.9047 6.46 50.7407 6.496 50.5807 6.536C50.4287 6.576 50.2847 6.62 50.1487 6.668C50.1167 6.548 50.0927 6.428 50.0767 6.308C50.0687 6.188 50.0647 6.1 50.0647 6.044C50.0647 5.628 50.1847 5.328 50.4247 5.144C50.6727 4.952 50.9687 4.856 51.3127 4.856C51.3127 4.672 51.2887 4.468 51.2407 4.244C51.1927 4.02 51.1087 3.772 50.9887 3.5C51.3247 3.252 51.6607 3.044 51.9967 2.876C52.3327 2.708 52.7047 2.624 53.1127 2.624C53.4647 2.624 53.7087 2.692 53.8447 2.828C53.9807 2.956 54.0487 3.172 54.0487 3.476C54.0487 3.628 54.0327 3.808 54.0007 4.016C53.9687 4.224 53.9287 4.452 53.8807 4.7C54.0567 4.676 54.2247 4.648 54.3847 4.616C54.5447 4.576 54.7007 4.536 54.8527 4.496C54.8847 4.584 54.9047 4.676 54.9127 4.772C54.9287 4.86 54.9367 4.948 54.9367 5.036C54.9367 5.356 54.8367 5.636 54.6367 5.876C54.4447 6.108 54.1447 6.224 53.7367 6.224H53.5567C53.4447 6.736 53.3447 7.26 53.2567 7.796C53.1687 8.332 53.1247 8.832 53.1247 9.296C53.1247 9.608 53.1527 9.888 53.2087 10.136C53.2727 10.376 53.3687 10.568 53.4967 10.712C53.0487 11.104 52.5727 11.3 52.0687 11.3ZM57.9678 3.02C57.5998 3.02 57.2958 2.94 57.0558 2.78C56.8158 2.62 56.6958 2.404 56.6958 2.132C56.6958 1.868 56.7838 1.652 56.9598 1.484C57.1358 1.308 57.3478 1.176 57.5958 1.088C57.8518 1 58.0918 0.956 58.3158 0.956C58.6838 0.956 58.9878 1.036 59.2278 1.196C59.4678 1.348 59.5878 1.564 59.5878 1.844C59.5878 2.076 59.5118 2.284 59.3598 2.468C59.2078 2.644 59.0078 2.78 58.7598 2.876C58.5198 2.972 58.2558 3.02 57.9678 3.02ZM57.2478 11.3C56.7358 11.3 56.3718 11.172 56.1558 10.916C55.9398 10.66 55.8318 10.292 55.8318 9.812C55.8318 9.636 55.8558 9.392 55.9038 9.08C55.9518 8.76 56.0158 8.408 56.0958 8.024C56.1758 7.632 56.2598 7.236 56.3478 6.836C56.4358 6.436 56.5198 6.06 56.5998 5.708L55.9278 4.7C56.3518 4.444 56.7558 4.232 57.1398 4.064C57.5238 3.888 57.9078 3.8 58.2918 3.8C58.6278 3.8 58.8598 3.872 58.9878 4.016C59.1238 4.16 59.1918 4.384 59.1918 4.688C59.1918 4.808 59.1598 5.004 59.0958 5.276C59.0398 5.548 58.9678 5.868 58.8798 6.236C58.7918 6.604 58.7038 6.992 58.6158 7.4C58.5278 7.8 58.4518 8.196 58.3878 8.588C58.3318 8.972 58.3038 9.316 58.3038 9.62C58.3038 9.86 58.3318 10.076 58.3878 10.268C58.4518 10.452 58.5478 10.6 58.6758 10.712C58.2278 11.104 57.7518 11.3 57.2478 11.3ZM61.7681 11.3C61.2641 11.3 60.9041 11.172 60.6881 10.916C60.4721 10.66 60.3641 10.292 60.3641 9.812C60.3641 9.644 60.3881 9.388 60.4361 9.044C60.4841 8.692 60.5441 8.304 60.6161 7.88C60.6961 7.448 60.7801 7.016 60.8681 6.584C60.9561 6.152 61.0401 5.768 61.1201 5.432L60.4961 4.472C60.8241 4.288 61.1761 4.132 61.5521 4.004C61.9361 3.868 62.3241 3.8 62.7161 3.8C63.0521 3.8 63.3001 3.884 63.4601 4.052C63.6201 4.212 63.7001 4.432 63.7001 4.712C63.7001 4.92 63.6721 5.136 63.6161 5.36C63.5601 5.584 63.4961 5.776 63.4241 5.936L63.5441 5.996C64.0161 5.188 64.5121 4.62 65.0321 4.292C65.5521 3.964 66.1041 3.8 66.6881 3.8C67.1121 3.8 67.4601 3.908 67.7321 4.124C68.0041 4.332 68.1401 4.672 68.1401 5.144C68.1401 5.384 68.1001 5.648 68.0201 5.936L68.1401 5.996C68.6121 5.188 69.1081 4.62 69.6281 4.292C70.1481 3.964 70.7001 3.8 71.2841 3.8C71.7721 3.8 72.1361 3.92 72.3761 4.16C72.6161 4.392 72.7361 4.756 72.7361 5.252C72.7361 5.684 72.6761 6.144 72.5561 6.632C72.4441 7.112 72.3281 7.608 72.2081 8.12C72.0881 8.624 72.0281 9.124 72.0281 9.62C72.0281 10.116 72.1121 10.48 72.2801 10.712C71.8561 11.104 71.4161 11.3 70.9601 11.3C70.4561 11.3 70.0961 11.172 69.8801 10.916C69.6641 10.66 69.5561 10.292 69.5561 9.812C69.5561 9.548 69.5921 9.256 69.6641 8.936C69.7361 8.608 69.8201 8.276 69.9161 7.94C70.0121 7.604 70.0961 7.288 70.1681 6.992C70.2401 6.696 70.2761 6.44 70.2761 6.224C70.2761 6.056 70.2441 5.924 70.1801 5.828C70.1241 5.732 70.0201 5.684 69.8681 5.684C69.6521 5.684 69.4041 5.78 69.1241 5.972C68.8521 6.164 68.5841 6.436 68.3201 6.788C68.0641 7.132 67.8521 7.544 67.6841 8.024C67.5161 8.504 67.4321 9.036 67.4321 9.62C67.4321 10.116 67.5161 10.48 67.6841 10.712C67.2601 11.104 66.8201 11.3 66.3641 11.3C65.8601 11.3 65.5001 11.172 65.2841 10.916C65.0681 10.66 64.9601 10.292 64.9601 9.812C64.9601 9.548 64.9961 9.256 65.0681 8.936C65.1401 8.608 65.2241 8.276 65.3201 7.94C65.4161 7.604 65.5001 7.288 65.5721 6.992C65.6441 6.696 65.6801 6.44 65.6801 6.224C65.6801 6.056 65.6481 5.924 65.5841 5.828C65.5281 5.732 65.4241 5.684 65.2721 5.684C65.0561 5.684 64.8081 5.78 64.5281 5.972C64.2561 6.164 63.9881 6.436 63.7241 6.788C63.4681 7.132 63.2561 7.544 63.0881 8.024C62.9201 8.504 62.8361 9.036 62.8361 9.62C62.8361 10.116 62.9201 10.48 63.0881 10.712C62.6641 11.104 62.2241 11.3 61.7681 11.3ZM77.2464 11.3C76.5024 11.3 75.8744 11.168 75.3624 10.904C74.8504 10.64 74.4624 10.272 74.1984 9.8C73.9424 9.32 73.8144 8.768 73.8144 8.144C73.8144 7.496 73.9304 6.908 74.1624 6.38C74.4024 5.844 74.7344 5.384 75.1584 5C75.5824 4.616 76.0744 4.32 76.6344 4.112C77.2024 3.904 77.8144 3.8 78.4704 3.8C79.2464 3.8 79.8184 3.972 80.1864 4.316C80.5544 4.66 80.7384 5.092 80.7384 5.612C80.7384 6.06 80.5904 6.484 80.2944 6.884C80.0064 7.276 79.5384 7.596 78.8904 7.844C78.2424 8.084 77.3784 8.208 76.2984 8.216C76.3224 8.728 76.4384 9.132 76.6464 9.428C76.8624 9.716 77.1304 9.86 77.4504 9.86C77.6104 9.86 77.7784 9.824 77.9544 9.752C78.1304 9.672 78.2784 9.536 78.3984 9.344C78.5184 9.144 78.5784 8.872 78.5784 8.528C79.1224 8.528 79.5504 8.588 79.8624 8.708C80.1744 8.828 80.3304 9.044 80.3304 9.356C80.3304 9.644 80.2064 9.94 79.9584 10.244C79.7104 10.54 79.3544 10.792 78.8904 11C78.4344 11.2 77.8864 11.3 77.2464 11.3ZM76.4064 7.256C76.9904 7.208 77.4584 7.1 77.8104 6.932C78.1624 6.764 78.4184 6.572 78.5784 6.356C78.7384 6.14 78.8184 5.94 78.8184 5.756C78.8184 5.596 78.7704 5.464 78.6744 5.36C78.5784 5.256 78.4424 5.204 78.2664 5.204C77.9784 5.204 77.7104 5.304 77.4624 5.504C77.2144 5.704 76.9984 5.964 76.8144 6.284C76.6384 6.596 76.5024 6.92 76.4064 7.256ZM84.6771 11.3C83.9251 11.3 83.3251 11.24 82.8771 11.12C82.4371 11.008 82.1211 10.852 81.9291 10.652C81.7371 10.452 81.6411 10.232 81.6411 9.992C81.6411 9.808 81.6891 9.596 81.7851 9.356C81.8891 9.116 82.0371 8.888 82.2291 8.672C82.3651 8.856 82.5451 9.028 82.7691 9.188C83.0011 9.34 83.2531 9.464 83.5251 9.56C83.7971 9.648 84.0611 9.692 84.3171 9.692C84.5971 9.692 84.8491 9.628 85.0731 9.5C85.2971 9.364 85.4451 9.136 85.5171 8.816C84.2851 8.672 83.4011 8.4 82.8651 8C82.3291 7.592 82.0611 7.028 82.0611 6.308C82.0611 5.852 82.1691 5.464 82.3851 5.144C82.6011 4.824 82.8891 4.568 83.2491 4.376C83.6171 4.176 84.0331 4.032 84.4971 3.944C84.9691 3.848 85.4571 3.8 85.9611 3.8C86.4331 3.8 86.8531 3.864 87.2211 3.992C87.5891 4.112 87.8771 4.276 88.0851 4.484C88.2931 4.692 88.3971 4.932 88.3971 5.204C88.3971 5.588 88.2571 5.88 87.9771 6.08C87.7051 6.28 87.3931 6.38 87.0411 6.38C86.8011 6.38 86.5491 6.3 86.2851 6.14C86.0211 5.98 85.8091 5.732 85.6491 5.396C85.3531 5.484 85.1171 5.612 84.9411 5.78C84.7651 5.94 84.6091 6.172 84.4731 6.476C85.3851 6.612 86.1091 6.784 86.6451 6.992C87.1811 7.2 87.5651 7.464 87.7971 7.784C88.0371 8.096 88.1571 8.484 88.1571 8.948C88.1571 9.316 88.0731 9.636 87.9051 9.908C87.7451 10.18 87.5331 10.404 87.2691 10.58C87.0051 10.756 86.7171 10.896 86.4051 11C86.0931 11.112 85.7851 11.188 85.4811 11.228C85.1771 11.276 84.9091 11.3 84.6771 11.3ZM89.1961 13.352L89.0161 12.824C89.2801 12.696 89.5041 12.528 89.6881 12.32C89.8801 12.112 90.0281 11.892 90.1321 11.66C90.2361 11.428 90.2881 11.216 90.2881 11.024L89.4481 9.944C89.4641 9.688 89.5401 9.452 89.6761 9.236C89.8201 9.012 90.0081 8.836 90.2401 8.708C90.4721 8.572 90.7241 8.504 90.9961 8.504C91.4041 8.504 91.7201 8.644 91.9441 8.924C92.1681 9.204 92.2801 9.524 92.2801 9.884C92.2801 10.428 92.1521 10.94 91.8961 11.42C91.6481 11.9 91.2921 12.308 90.8281 12.644C90.3721 12.98 89.8281 13.216 89.1961 13.352ZM98.4818 11.3C97.9938 11.3 97.6458 11.172 97.4378 10.916C97.2298 10.66 97.1258 10.292 97.1258 9.812C97.1258 9.644 97.1498 9.388 97.1978 9.044C97.2458 8.692 97.3058 8.304 97.3778 7.88C97.4578 7.448 97.5418 7.016 97.6298 6.584C97.7178 6.152 97.8018 5.768 97.8818 5.432L97.2578 4.472C97.6738 4.288 98.0578 4.132 98.4098 4.004C98.7698 3.868 99.0898 3.8 99.3698 3.8C99.5778 3.8 99.7298 3.872 99.8258 4.016C99.9218 4.16 99.9698 4.344 99.9698 4.568C99.9698 4.824 99.9258 5.112 99.8378 5.432C99.7498 5.744 99.6618 6.04 99.5738 6.32L99.6938 6.38C99.9738 5.556 100.29 4.92 100.642 4.472C101.002 4.024 101.402 3.8 101.842 3.8C102.13 3.8 102.362 3.864 102.538 3.992C102.714 4.112 102.842 4.264 102.922 4.448C103.01 4.624 103.054 4.796 103.054 4.964C103.054 5.228 102.986 5.484 102.85 5.732C102.722 5.972 102.514 6.172 102.226 6.332C101.938 6.484 101.558 6.56 101.086 6.56C100.902 6.56 100.722 6.6 100.546 6.68C100.37 6.76 100.21 6.912 100.066 7.136C99.9218 7.352 99.8058 7.66 99.7178 8.06C99.6378 8.46 99.5978 8.98 99.5978 9.62C99.5978 10.116 99.6818 10.48 99.8498 10.712C99.3538 11.104 98.8978 11.3 98.4818 11.3ZM106.426 11.3C105.682 11.3 105.054 11.168 104.542 10.904C104.03 10.64 103.642 10.272 103.378 9.8C103.122 9.32 102.994 8.768 102.994 8.144C102.994 7.496 103.11 6.908 103.342 6.38C103.582 5.844 103.914 5.384 104.338 5C104.762 4.616 105.254 4.32 105.814 4.112C106.382 3.904 106.994 3.8 107.65 3.8C108.426 3.8 108.998 3.972 109.366 4.316C109.734 4.66 109.918 5.092 109.918 5.612C109.918 6.06 109.77 6.484 109.474 6.884C109.186 7.276 108.718 7.596 108.07 7.844C107.422 8.084 106.558 8.208 105.478 8.216C105.502 8.728 105.618 9.132 105.826 9.428C106.042 9.716 106.31 9.86 106.63 9.86C106.79 9.86 106.958 9.824 107.134 9.752C107.31 9.672 107.458 9.536 107.578 9.344C107.698 9.144 107.758 8.872 107.758 8.528C108.302 8.528 108.73 8.588 109.042 8.708C109.354 8.828 109.51 9.044 109.51 9.356C109.51 9.644 109.386 9.94 109.138 10.244C108.89 10.54 108.534 10.792 108.07 11C107.614 11.2 107.066 11.3 106.426 11.3ZM105.586 7.256C106.17 7.208 106.638 7.1 106.99 6.932C107.342 6.764 107.598 6.572 107.758 6.356C107.918 6.14 107.998 5.94 107.998 5.756C107.998 5.596 107.95 5.464 107.854 5.36C107.758 5.256 107.622 5.204 107.446 5.204C107.158 5.204 106.89 5.304 106.642 5.504C106.394 5.704 106.178 5.964 105.994 6.284C105.818 6.596 105.682 6.92 105.586 7.256ZM113.857 11.3C113.105 11.3 112.505 11.24 112.057 11.12C111.617 11.008 111.301 10.852 111.109 10.652C110.917 10.452 110.821 10.232 110.821 9.992C110.821 9.808 110.869 9.596 110.965 9.356C111.069 9.116 111.217 8.888 111.409 8.672C111.545 8.856 111.725 9.028 111.949 9.188C112.181 9.34 112.433 9.464 112.705 9.56C112.977 9.648 113.241 9.692 113.497 9.692C113.777 9.692 114.029 9.628 114.253 9.5C114.477 9.364 114.625 9.136 114.697 8.816C113.465 8.672 112.581 8.4 112.045 8C111.509 7.592 111.241 7.028 111.241 6.308C111.241 5.852 111.349 5.464 111.565 5.144C111.781 4.824 112.069 4.568 112.429 4.376C112.797 4.176 113.213 4.032 113.677 3.944C114.149 3.848 114.637 3.8 115.141 3.8C115.613 3.8 116.033 3.864 116.401 3.992C116.769 4.112 117.057 4.276 117.265 4.484C117.473 4.692 117.577 4.932 117.577 5.204C117.577 5.588 117.437 5.88 117.157 6.08C116.885 6.28 116.573 6.38 116.221 6.38C115.981 6.38 115.729 6.3 115.465 6.14C115.201 5.98 114.989 5.732 114.829 5.396C114.533 5.484 114.297 5.612 114.121 5.78C113.945 5.94 113.789 6.172 113.653 6.476C114.565 6.612 115.289 6.784 115.825 6.992C116.361 7.2 116.745 7.464 116.977 7.784C117.217 8.096 117.337 8.484 117.337 8.948C117.337 9.316 117.253 9.636 117.085 9.908C116.925 10.18 116.713 10.404 116.449 10.58C116.185 10.756 115.897 10.896 115.585 11C115.273 11.112 114.965 11.188 114.661 11.228C114.357 11.276 114.089 11.3 113.857 11.3ZM120.776 11.3C120.264 11.3 119.9 11.148 119.684 10.844C119.468 10.54 119.36 10.076 119.36 9.452C119.36 9.276 119.38 9.028 119.42 8.708C119.46 8.38 119.512 8.016 119.576 7.616C119.648 7.216 119.716 6.82 119.78 6.428C119.612 6.46 119.448 6.496 119.288 6.536C119.136 6.576 118.992 6.62 118.856 6.668C118.824 6.548 118.8 6.428 118.784 6.308C118.776 6.188 118.772 6.1 118.772 6.044C118.772 5.628 118.892 5.328 119.132 5.144C119.38 4.952 119.676 4.856 120.02 4.856C120.02 4.672 119.996 4.468 119.948 4.244C119.9 4.02 119.816 3.772 119.696 3.5C120.032 3.252 120.368 3.044 120.704 2.876C121.04 2.708 121.412 2.624 121.82 2.624C122.172 2.624 122.416 2.692 122.552 2.828C122.688 2.956 122.756 3.172 122.756 3.476C122.756 3.628 122.74 3.808 122.708 4.016C122.676 4.224 122.636 4.452 122.588 4.7C122.764 4.676 122.932 4.648 123.092 4.616C123.252 4.576 123.408 4.536 123.56 4.496C123.592 4.584 123.612 4.676 123.62 4.772C123.636 4.86 123.644 4.948 123.644 5.036C123.644 5.356 123.544 5.636 123.344 5.876C123.152 6.108 122.852 6.224 122.444 6.224H122.264C122.152 6.736 122.052 7.26 121.964 7.796C121.876 8.332 121.832 8.832 121.832 9.296C121.832 9.608 121.86 9.888 121.916 10.136C121.98 10.376 122.076 10.568 122.204 10.712C121.756 11.104 121.28 11.3 120.776 11.3ZM130.272 3.02C129.904 3.02 129.6 2.94 129.36 2.78C129.12 2.62 129 2.404 129 2.132C129 1.868 129.088 1.652 129.264 1.484C129.44 1.308 129.652 1.176 129.9 1.088C130.156 1 130.396 0.956 130.62 0.956C130.988 0.956 131.292 1.036 131.532 1.196C131.772 1.348 131.892 1.564 131.892 1.844C131.892 2.076 131.816 2.284 131.664 2.468C131.512 2.644 131.312 2.78 131.064 2.876C130.824 2.972 130.56 3.02 130.272 3.02ZM129.552 11.3C129.04 11.3 128.676 11.172 128.46 10.916C128.244 10.66 128.136 10.292 128.136 9.812C128.136 9.636 128.16 9.392 128.208 9.08C128.256 8.76 128.32 8.408 128.4 8.024C128.48 7.632 128.564 7.236 128.652 6.836C128.74 6.436 128.824 6.06 128.904 5.708L128.232 4.7C128.656 4.444 129.06 4.232 129.444 4.064C129.828 3.888 130.212 3.8 130.596 3.8C130.932 3.8 131.164 3.872 131.292 4.016C131.428 4.16 131.496 4.384 131.496 4.688C131.496 4.808 131.464 5.004 131.4 5.276C131.344 5.548 131.272 5.868 131.184 6.236C131.096 6.604 131.008 6.992 130.92 7.4C130.832 7.8 130.756 8.196 130.692 8.588C130.636 8.972 130.608 9.316 130.608 9.62C130.608 9.86 130.636 10.076 130.692 10.268C130.756 10.452 130.852 10.6 130.98 10.712C130.532 11.104 130.056 11.3 129.552 11.3ZM135.525 11.3C134.773 11.3 134.173 11.24 133.725 11.12C133.285 11.008 132.969 10.852 132.777 10.652C132.585 10.452 132.489 10.232 132.489 9.992C132.489 9.808 132.537 9.596 132.633 9.356C132.737 9.116 132.885 8.888 133.077 8.672C133.213 8.856 133.393 9.028 133.617 9.188C133.849 9.34 134.101 9.464 134.373 9.56C134.645 9.648 134.909 9.692 135.165 9.692C135.445 9.692 135.697 9.628 135.921 9.5C136.145 9.364 136.293 9.136 136.365 8.816C135.133 8.672 134.249 8.4 133.713 8C133.177 7.592 132.909 7.028 132.909 6.308C132.909 5.852 133.017 5.464 133.233 5.144C133.449 4.824 133.737 4.568 134.097 4.376C134.465 4.176 134.881 4.032 135.345 3.944C135.817 3.848 136.305 3.8 136.809 3.8C137.281 3.8 137.701 3.864 138.069 3.992C138.437 4.112 138.725 4.276 138.933 4.484C139.141 4.692 139.245 4.932 139.245 5.204C139.245 5.588 139.105 5.88 138.825 6.08C138.553 6.28 138.241 6.38 137.889 6.38C137.649 6.38 137.397 6.3 137.133 6.14C136.869 5.98 136.657 5.732 136.497 5.396C136.201 5.484 135.965 5.612 135.789 5.78C135.613 5.94 135.457 6.172 135.321 6.476C136.233 6.612 136.957 6.784 137.493 6.992C138.029 7.2 138.413 7.464 138.645 7.784C138.885 8.096 139.005 8.484 139.005 8.948C139.005 9.316 138.921 9.636 138.753 9.908C138.593 10.18 138.381 10.404 138.117 10.58C137.853 10.756 137.565 10.896 137.253 11C136.941 11.112 136.633 11.188 136.329 11.228C136.025 11.276 135.757 11.3 135.525 11.3ZM2.55701 29.3C2.04501 29.3 1.68101 29.148 1.46501 28.844C1.24901 28.54 1.14101 28.076 1.14101 27.452C1.14101 27.276 1.16101 27.028 1.20101 26.708C1.24101 26.38 1.29301 26.016 1.35701 25.616C1.42901 25.216 1.49701 24.82 1.56101 24.428C1.39301 24.46 1.22901 24.496 1.06901 24.536C0.917008 24.576 0.773008 24.62 0.637008 24.668C0.605008 24.548 0.581008 24.428 0.565008 24.308C0.557008 24.188 0.553008 24.1 0.553008 24.044C0.553008 23.628 0.673008 23.328 0.913008 23.144C1.16101 22.952 1.45701 22.856 1.80101 22.856C1.80101 22.672 1.77701 22.468 1.72901 22.244C1.68101 22.02 1.59701 21.772 1.47701 21.5C1.81301 21.252 2.14901 21.044 2.48501 20.876C2.82101 20.708 3.19301 20.624 3.60101 20.624C3.95301 20.624 4.19701 20.692 4.33301 20.828C4.46901 20.956 4.53701 21.172 4.53701 21.476C4.53701 21.628 4.52101 21.808 4.48901 22.016C4.45701 22.224 4.41701 22.452 4.36901 22.7C4.54501 22.676 4.71301 22.648 4.87301 22.616C5.03301 22.576 5.18901 22.536 5.34101 22.496C5.37301 22.584 5.39301 22.676 5.40101 22.772C5.41701 22.86 5.42501 22.948 5.42501 23.036C5.42501 23.356 5.32501 23.636 5.12501 23.876C4.93301 24.108 4.63301 24.224 4.22501 24.224H4.04501C3.93301 24.736 3.83301 25.26 3.74501 25.796C3.65701 26.332 3.61301 26.832 3.61301 27.296C3.61301 27.608 3.64101 27.888 3.69701 28.136C3.76101 28.376 3.85701 28.568 3.98501 28.712C3.53701 29.104 3.06101 29.3 2.55701 29.3ZM7.78404 29.3C7.28004 29.3 6.92004 29.172 6.70404 28.916C6.48804 28.66 6.38004 28.292 6.38004 27.812C6.38004 27.572 6.40004 27.26 6.44004 26.876C6.48804 26.492 6.54804 26.068 6.62004 25.604C6.69204 25.132 6.77204 24.652 6.86004 24.164C6.94804 23.668 7.03204 23.196 7.11204 22.748C7.19204 22.292 7.26404 21.888 7.32804 21.536L6.65604 20.576C7.08004 20.328 7.48404 20.12 7.86804 19.952C8.25204 19.784 8.63604 19.7 9.02004 19.7C9.35604 19.7 9.58804 19.768 9.71604 19.904C9.85204 20.032 9.92004 20.248 9.92004 20.552C9.92004 20.88 9.90004 21.22 9.86004 21.572C9.82804 21.916 9.78404 22.248 9.72804 22.568C9.67204 22.888 9.61604 23.168 9.56004 23.408C9.51204 23.648 9.47204 23.824 9.44004 23.936L9.56004 23.996C10.032 23.188 10.548 22.62 11.108 22.292C11.668 21.964 12.24 21.8 12.824 21.8C13.312 21.8 13.676 21.92 13.916 22.16C14.156 22.392 14.276 22.756 14.276 23.252C14.276 23.684 14.216 24.144 14.096 24.632C13.984 25.112 13.868 25.608 13.748 26.12C13.628 26.624 13.568 27.124 13.568 27.62C13.568 28.116 13.652 28.48 13.82 28.712C13.396 29.104 12.956 29.3 12.5 29.3C11.996 29.3 11.636 29.172 11.42 28.916C11.204 28.66 11.096 28.292 11.096 27.812C11.096 27.548 11.132 27.256 11.204 26.936C11.276 26.608 11.36 26.276 11.456 25.94C11.552 25.604 11.636 25.288 11.708 24.992C11.78 24.696 11.816 24.44 11.816 24.224C11.816 24.056 11.784 23.924 11.72 23.828C11.664 23.732 11.56 23.684 11.408 23.684C11.192 23.684 10.94 23.78 10.652 23.972C10.364 24.164 10.08 24.436 9.80004 24.788C9.52804 25.132 9.30004 25.544 9.11604 26.024C8.94004 26.504 8.85204 27.036 8.85204 27.62C8.85204 28.116 8.93604 28.48 9.10404 28.712C8.68004 29.104 8.24004 29.3 7.78404 29.3ZM18.7933 29.3C18.0493 29.3 17.4213 29.168 16.9093 28.904C16.3973 28.64 16.0093 28.272 15.7453 27.8C15.4893 27.32 15.3613 26.768 15.3613 26.144C15.3613 25.496 15.4773 24.908 15.7093 24.38C15.9493 23.844 16.2813 23.384 16.7053 23C17.1293 22.616 17.6213 22.32 18.1813 22.112C18.7493 21.904 19.3613 21.8 20.0173 21.8C20.7933 21.8 21.3653 21.972 21.7333 22.316C22.1013 22.66 22.2853 23.092 22.2853 23.612C22.2853 24.06 22.1373 24.484 21.8413 24.884C21.5533 25.276 21.0853 25.596 20.4373 25.844C19.7893 26.084 18.9253 26.208 17.8453 26.216C17.8693 26.728 17.9853 27.132 18.1933 27.428C18.4093 27.716 18.6773 27.86 18.9973 27.86C19.1573 27.86 19.3253 27.824 19.5013 27.752C19.6773 27.672 19.8253 27.536 19.9453 27.344C20.0653 27.144 20.1253 26.872 20.1253 26.528C20.6693 26.528 21.0973 26.588 21.4093 26.708C21.7213 26.828 21.8773 27.044 21.8773 27.356C21.8773 27.644 21.7533 27.94 21.5053 28.244C21.2573 28.54 20.9013 28.792 20.4373 29C19.9813 29.2 19.4333 29.3 18.7933 29.3ZM17.9533 25.256C18.5373 25.208 19.0053 25.1 19.3573 24.932C19.7093 24.764 19.9653 24.572 20.1253 24.356C20.2853 24.14 20.3653 23.94 20.3653 23.756C20.3653 23.596 20.3173 23.464 20.2213 23.36C20.1253 23.256 19.9893 23.204 19.8133 23.204C19.5253 23.204 19.2573 23.304 19.0093 23.504C18.7613 23.704 18.5453 23.964 18.3613 24.284C18.1853 24.596 18.0493 24.92 17.9533 25.256ZM28.3697 29.3C27.8657 29.3 27.5057 29.172 27.2897 28.916C27.0737 28.66 26.9657 28.292 26.9657 27.812C26.9657 27.644 26.9897 27.388 27.0377 27.044C27.0857 26.692 27.1457 26.304 27.2177 25.88C27.2977 25.448 27.3817 25.016 27.4697 24.584C27.5577 24.152 27.6417 23.768 27.7217 23.432L27.0977 22.472C27.4257 22.288 27.7777 22.132 28.1537 22.004C28.5377 21.868 28.9257 21.8 29.3177 21.8C29.6537 21.8 29.9017 21.884 30.0617 22.052C30.2217 22.212 30.3017 22.432 30.3017 22.712C30.3017 22.92 30.2737 23.136 30.2177 23.36C30.1617 23.584 30.0977 23.776 30.0257 23.936L30.1457 23.996C30.6177 23.188 31.1137 22.62 31.6337 22.292C32.1537 21.964 32.7057 21.8 33.2897 21.8C33.7137 21.8 34.0617 21.908 34.3337 22.124C34.6057 22.332 34.7417 22.672 34.7417 23.144C34.7417 23.384 34.7017 23.648 34.6217 23.936L34.7417 23.996C35.2137 23.188 35.7097 22.62 36.2297 22.292C36.7497 21.964 37.3017 21.8 37.8857 21.8C38.3737 21.8 38.7377 21.92 38.9777 22.16C39.2177 22.392 39.3377 22.756 39.3377 23.252C39.3377 23.684 39.2777 24.144 39.1577 24.632C39.0457 25.112 38.9297 25.608 38.8097 26.12C38.6897 26.624 38.6297 27.124 38.6297 27.62C38.6297 28.116 38.7137 28.48 38.8817 28.712C38.4577 29.104 38.0177 29.3 37.5617 29.3C37.0577 29.3 36.6977 29.172 36.4817 28.916C36.2657 28.66 36.1577 28.292 36.1577 27.812C36.1577 27.548 36.1937 27.256 36.2657 26.936C36.3377 26.608 36.4217 26.276 36.5177 25.94C36.6137 25.604 36.6977 25.288 36.7697 24.992C36.8417 24.696 36.8777 24.44 36.8777 24.224C36.8777 24.056 36.8457 23.924 36.7817 23.828C36.7257 23.732 36.6217 23.684 36.4697 23.684C36.2537 23.684 36.0057 23.78 35.7257 23.972C35.4537 24.164 35.1857 24.436 34.9217 24.788C34.6657 25.132 34.4537 25.544 34.2857 26.024C34.1177 26.504 34.0337 27.036 34.0337 27.62C34.0337 28.116 34.1177 28.48 34.2857 28.712C33.8617 29.104 33.4217 29.3 32.9657 29.3C32.4617 29.3 32.1017 29.172 31.8857 28.916C31.6697 28.66 31.5617 28.292 31.5617 27.812C31.5617 27.548 31.5977 27.256 31.6697 26.936C31.7417 26.608 31.8257 26.276 31.9217 25.94C32.0177 25.604 32.1017 25.288 32.1737 24.992C32.2457 24.696 32.2817 24.44 32.2817 24.224C32.2817 24.056 32.2497 23.924 32.1857 23.828C32.1297 23.732 32.0257 23.684 31.8737 23.684C31.6577 23.684 31.4097 23.78 31.1297 23.972C30.8577 24.164 30.5897 24.436 30.3257 24.788C30.0697 25.132 29.8577 25.544 29.6897 26.024C29.5217 26.504 29.4377 27.036 29.4377 27.62C29.4377 28.116 29.5217 28.48 29.6897 28.712C29.2657 29.104 28.8257 29.3 28.3697 29.3ZM43.812 29.3C43.108 29.3 42.5 29.168 41.988 28.904C41.484 28.632 41.096 28.26 40.824 27.788C40.552 27.316 40.416 26.768 40.416 26.144C40.416 25.28 40.604 24.524 40.98 23.876C41.364 23.22 41.888 22.712 42.552 22.352C43.216 21.984 43.972 21.8 44.82 21.8C44.956 21.8 45.092 21.808 45.228 21.824C45.372 21.832 45.524 21.856 45.684 21.896C45.724 22.008 45.756 22.144 45.78 22.304C45.804 22.456 45.82 22.62 45.828 22.796C45.9 22.772 45.976 22.752 46.056 22.736C46.144 22.72 46.236 22.712 46.332 22.712C46.612 22.712 46.876 22.788 47.124 22.94C47.372 23.084 47.576 23.312 47.736 23.624C47.896 23.936 47.976 24.332 47.976 24.812C47.976 25.524 47.856 26.16 47.616 26.72C47.384 27.272 47.068 27.74 46.668 28.124C46.268 28.508 45.82 28.8 45.324 29C44.836 29.2 44.332 29.3 43.812 29.3ZM44.184 27.824C44.368 27.824 44.56 27.78 44.76 27.692C44.96 27.604 45.156 27.444 45.348 27.212C45.54 26.98 45.7 26.652 45.828 26.228C45.484 26.012 45.236 25.748 45.084 25.436C44.932 25.116 44.856 24.764 44.856 24.38C44.856 24.268 44.876 24.124 44.916 23.948C44.956 23.772 45.024 23.592 45.12 23.408C45.224 23.224 45.364 23.072 45.54 22.952C44.988 23.064 44.536 23.232 44.184 23.456C43.832 23.68 43.556 23.94 43.356 24.236C43.164 24.524 43.028 24.824 42.948 25.136C42.876 25.44 42.84 25.732 42.84 26.012C42.84 26.332 42.892 26.632 42.996 26.912C43.1 27.184 43.252 27.404 43.452 27.572C43.652 27.74 43.896 27.824 44.184 27.824ZM51.9701 29.3C51.2181 29.3 50.6181 29.24 50.1701 29.12C49.7301 29.008 49.4141 28.852 49.2221 28.652C49.0301 28.452 48.9341 28.232 48.9341 27.992C48.9341 27.808 48.9821 27.596 49.0781 27.356C49.1821 27.116 49.3301 26.888 49.5221 26.672C49.6581 26.856 49.8381 27.028 50.0621 27.188C50.2941 27.34 50.5461 27.464 50.8181 27.56C51.0901 27.648 51.3541 27.692 51.6101 27.692C51.8901 27.692 52.1421 27.628 52.3661 27.5C52.5901 27.364 52.7381 27.136 52.8101 26.816C51.5781 26.672 50.6941 26.4 50.1581 26C49.6221 25.592 49.3541 25.028 49.3541 24.308C49.3541 23.852 49.4621 23.464 49.6781 23.144C49.8941 22.824 50.1821 22.568 50.5421 22.376C50.9101 22.176 51.3261 22.032 51.7901 21.944C52.2621 21.848 52.7501 21.8 53.2541 21.8C53.7261 21.8 54.1461 21.864 54.5141 21.992C54.8821 22.112 55.1701 22.276 55.3781 22.484C55.5861 22.692 55.6901 22.932 55.6901 23.204C55.6901 23.588 55.5501 23.88 55.2701 24.08C54.9981 24.28 54.6861 24.38 54.3341 24.38C54.0941 24.38 53.8421 24.3 53.5781 24.14C53.3141 23.98 53.1021 23.732 52.9421 23.396C52.6461 23.484 52.4101 23.612 52.2341 23.78C52.0581 23.94 51.9021 24.172 51.7661 24.476C52.6781 24.612 53.4021 24.784 53.9381 24.992C54.4741 25.2 54.8581 25.464 55.0901 25.784C55.3301 26.096 55.4501 26.484 55.4501 26.948C55.4501 27.316 55.3661 27.636 55.1981 27.908C55.0381 28.18 54.8261 28.404 54.5621 28.58C54.2981 28.756 54.0101 28.896 53.6981 29C53.3861 29.112 53.0781 29.188 52.7741 29.228C52.4701 29.276 52.2021 29.3 51.9701 29.3ZM58.889 29.3C58.377 29.3 58.013 29.148 57.797 28.844C57.581 28.54 57.473 28.076 57.473 27.452C57.473 27.276 57.493 27.028 57.533 26.708C57.573 26.38 57.625 26.016 57.689 25.616C57.761 25.216 57.829 24.82 57.893 24.428C57.725 24.46 57.561 24.496 57.401 24.536C57.249 24.576 57.105 24.62 56.969 24.668C56.937 24.548 56.913 24.428 56.897 24.308C56.889 24.188 56.885 24.1 56.885 24.044C56.885 23.628 57.005 23.328 57.245 23.144C57.493 22.952 57.789 22.856 58.133 22.856C58.133 22.672 58.109 22.468 58.061 22.244C58.013 22.02 57.929 21.772 57.809 21.5C58.145 21.252 58.481 21.044 58.817 20.876C59.153 20.708 59.525 20.624 59.933 20.624C60.285 20.624 60.529 20.692 60.665 20.828C60.801 20.956 60.869 21.172 60.869 21.476C60.869 21.628 60.853 21.808 60.821 22.016C60.789 22.224 60.749 22.452 60.701 22.7C60.877 22.676 61.045 22.648 61.205 22.616C61.365 22.576 61.521 22.536 61.673 22.496C61.705 22.584 61.725 22.676 61.733 22.772C61.749 22.86 61.757 22.948 61.757 23.036C61.757 23.356 61.657 23.636 61.457 23.876C61.265 24.108 60.965 24.224 60.557 24.224H60.377C60.265 24.736 60.165 25.26 60.077 25.796C59.989 26.332 59.945 26.832 59.945 27.296C59.945 27.608 59.973 27.888 60.029 28.136C60.093 28.376 60.189 28.568 60.317 28.712C59.869 29.104 59.393 29.3 58.889 29.3ZM67.4497 31.388C66.9377 31.388 66.5897 31.26 66.4057 31.004C66.2217 30.748 66.1297 30.38 66.1297 29.9C66.1297 29.724 66.1497 29.452 66.1897 29.084C66.2297 28.716 66.2777 28.296 66.3337 27.824C66.3977 27.344 66.4697 26.848 66.5497 26.336C66.6297 25.824 66.7057 25.332 66.7777 24.86C66.8577 24.388 66.9297 23.976 66.9937 23.624L66.3217 22.664C66.7457 22.416 67.1457 22.208 67.5217 22.04C67.9057 21.872 68.2897 21.788 68.6737 21.788C69.0097 21.788 69.2377 21.904 69.3577 22.136C69.4777 22.36 69.5377 22.624 69.5377 22.928C69.5377 23.016 69.5337 23.116 69.5257 23.228C69.5177 23.332 69.5057 23.444 69.4897 23.564L69.6097 23.624C69.8417 23.048 70.1777 22.6 70.6177 22.28C71.0577 21.952 71.5617 21.788 72.1297 21.788C72.5617 21.788 72.9257 21.92 73.2217 22.184C73.5177 22.44 73.7417 22.78 73.8937 23.204C74.0457 23.628 74.1217 24.096 74.1217 24.608C74.1217 25.104 74.0257 25.612 73.8337 26.132C73.6497 26.644 73.3657 27.116 72.9817 27.548C72.5977 27.98 72.1137 28.328 71.5297 28.592C70.9457 28.856 70.2537 28.988 69.4537 28.988C69.3017 28.988 69.1537 28.984 69.0097 28.976C68.8657 28.96 68.7097 28.944 68.5417 28.928C68.5177 29.2 68.5057 29.46 68.5057 29.708C68.5057 29.948 68.5337 30.16 68.5897 30.344C68.6537 30.536 68.7497 30.688 68.8777 30.8C68.4297 31.192 67.9537 31.388 67.4497 31.388ZM68.7577 27.812C69.2777 27.796 69.7337 27.7 70.1257 27.524C70.5257 27.34 70.8617 27.104 71.1337 26.816C71.4057 26.52 71.6097 26.2 71.7457 25.856C71.8817 25.512 71.9497 25.176 71.9497 24.848C71.9497 24.48 71.8777 24.18 71.7337 23.948C71.5897 23.716 71.3737 23.6 71.0857 23.6C70.7897 23.6 70.5097 23.692 70.2457 23.876C69.9897 24.052 69.7577 24.344 69.5497 24.752C69.3497 25.16 69.1777 25.716 69.0337 26.42L68.7577 27.812ZM76.6732 29.3C76.1852 29.3 75.8372 29.172 75.6292 28.916C75.4212 28.66 75.3172 28.292 75.3172 27.812C75.3172 27.644 75.3412 27.388 75.3892 27.044C75.4372 26.692 75.4972 26.304 75.5692 25.88C75.6492 25.448 75.7332 25.016 75.8212 24.584C75.9092 24.152 75.9932 23.768 76.0732 23.432L75.4492 22.472C75.8652 22.288 76.2492 22.132 76.6012 22.004C76.9612 21.868 77.2812 21.8 77.5612 21.8C77.7692 21.8 77.9212 21.872 78.0172 22.016C78.1132 22.16 78.1612 22.344 78.1612 22.568C78.1612 22.824 78.1172 23.112 78.0292 23.432C77.9412 23.744 77.8532 24.04 77.7652 24.32L77.8852 24.38C78.1652 23.556 78.4812 22.92 78.8332 22.472C79.1932 22.024 79.5932 21.8 80.0332 21.8C80.3212 21.8 80.5532 21.864 80.7292 21.992C80.9052 22.112 81.0332 22.264 81.1132 22.448C81.2012 22.624 81.2452 22.796 81.2452 22.964C81.2452 23.228 81.1772 23.484 81.0412 23.732C80.9132 23.972 80.7052 24.172 80.4172 24.332C80.1292 24.484 79.7492 24.56 79.2772 24.56C79.0932 24.56 78.9132 24.6 78.7372 24.68C78.5612 24.76 78.4012 24.912 78.2572 25.136C78.1132 25.352 77.9972 25.66 77.9092 26.06C77.8292 26.46 77.7892 26.98 77.7892 27.62C77.7892 28.116 77.8732 28.48 78.0412 28.712C77.5452 29.104 77.0892 29.3 76.6732 29.3ZM84.5815 29.3C83.8775 29.3 83.2695 29.168 82.7575 28.904C82.2535 28.632 81.8655 28.26 81.5935 27.788C81.3215 27.316 81.1855 26.768 81.1855 26.144C81.1855 25.28 81.3735 24.524 81.7495 23.876C82.1335 23.22 82.6575 22.712 83.3215 22.352C83.9855 21.984 84.7415 21.8 85.5895 21.8C85.7255 21.8 85.8615 21.808 85.9975 21.824C86.1415 21.832 86.2935 21.856 86.4535 21.896C86.4935 22.008 86.5255 22.144 86.5495 22.304C86.5735 22.456 86.5895 22.62 86.5975 22.796C86.6695 22.772 86.7455 22.752 86.8255 22.736C86.9135 22.72 87.0055 22.712 87.1015 22.712C87.3815 22.712 87.6455 22.788 87.8935 22.94C88.1415 23.084 88.3455 23.312 88.5055 23.624C88.6655 23.936 88.7455 24.332 88.7455 24.812C88.7455 25.524 88.6255 26.16 88.3855 26.72C88.1535 27.272 87.8375 27.74 87.4375 28.124C87.0375 28.508 86.5895 28.8 86.0935 29C85.6055 29.2 85.1015 29.3 84.5815 29.3ZM84.9535 27.824C85.1375 27.824 85.3295 27.78 85.5295 27.692C85.7295 27.604 85.9255 27.444 86.1175 27.212C86.3095 26.98 86.4695 26.652 86.5975 26.228C86.2535 26.012 86.0055 25.748 85.8535 25.436C85.7015 25.116 85.6255 24.764 85.6255 24.38C85.6255 24.268 85.6455 24.124 85.6855 23.948C85.7255 23.772 85.7935 23.592 85.8895 23.408C85.9935 23.224 86.1335 23.072 86.3095 22.952C85.7575 23.064 85.3055 23.232 84.9535 23.456C84.6015 23.68 84.3255 23.94 84.1255 24.236C83.9335 24.524 83.7975 24.824 83.7175 25.136C83.6455 25.44 83.6095 25.732 83.6095 26.012C83.6095 26.332 83.6615 26.632 83.7655 26.912C83.8695 27.184 84.0215 27.404 84.2215 27.572C84.4215 27.74 84.6655 27.824 84.9535 27.824ZM92.0556 29.3C91.6476 29.3 91.2676 29.192 90.9156 28.976C90.5716 28.752 90.2916 28.432 90.0756 28.016C89.8676 27.592 89.7636 27.08 89.7636 26.48C89.7636 25.984 89.8556 25.48 90.0396 24.968C90.2316 24.448 90.5196 23.972 90.9036 23.54C91.2876 23.108 91.7716 22.76 92.3556 22.496C92.9396 22.232 93.6316 22.1 94.4316 22.1C94.5596 22.1 94.6836 22.104 94.8036 22.112C94.9316 22.12 95.0636 22.132 95.1996 22.148C95.2076 22.092 95.2236 21.992 95.2476 21.848C95.2796 21.696 95.2996 21.592 95.3076 21.536L94.6356 20.576C95.0596 20.328 95.4636 20.12 95.8476 19.952C96.2316 19.784 96.6156 19.7 96.9996 19.7C97.3356 19.7 97.5676 19.768 97.6956 19.904C97.8316 20.032 97.8996 20.248 97.8996 20.552C97.8996 20.832 97.8636 21.184 97.7916 21.608C97.7196 22.024 97.6316 22.48 97.5276 22.976C97.4236 23.464 97.3156 23.968 97.2036 24.488C97.0996 25.008 97.0116 25.508 96.9396 25.988C96.8676 26.468 96.8316 26.904 96.8316 27.296C96.8316 27.672 96.8596 27.976 96.9156 28.208C96.9796 28.432 97.0756 28.6 97.2036 28.712C96.7556 29.104 96.2796 29.3 95.7756 29.3C95.4316 29.3 95.1596 29.236 94.9596 29.108C94.7676 28.98 94.6276 28.824 94.5396 28.64C94.4516 28.456 94.4076 28.284 94.4076 28.124L94.2876 28.064C93.9676 28.488 93.6116 28.8 93.2196 29C92.8276 29.2 92.4396 29.3 92.0556 29.3ZM93.2556 27.5C93.4636 27.5 93.6756 27.448 93.8916 27.344C94.1076 27.24 94.3116 27.076 94.5036 26.852C94.5596 26.26 94.6316 25.648 94.7196 25.016C94.8076 24.376 94.9156 23.756 95.0436 23.156C94.5556 23.156 94.1196 23.244 93.7356 23.42C93.3596 23.588 93.0436 23.816 92.7876 24.104C92.5396 24.384 92.3476 24.692 92.2116 25.028C92.0836 25.364 92.0196 25.696 92.0196 26.024C92.0196 26.496 92.1396 26.86 92.3796 27.116C92.6276 27.372 92.9196 27.5 93.2556 27.5ZM100.876 29.3C100.38 29.3 99.9922 29.212 99.7122 29.036C99.4402 28.868 99.2482 28.64 99.1362 28.352C99.0322 28.056 98.9802 27.724 98.9802 27.356C98.9802 26.932 99.0242 26.488 99.1122 26.024C99.2002 25.552 99.2882 25.096 99.3762 24.656C99.4642 24.208 99.5082 23.816 99.5082 23.48C99.5082 22.984 99.4242 22.62 99.2562 22.388C99.5842 22.212 99.9242 22.072 100.276 21.968C100.636 21.856 100.924 21.8 101.14 21.8C101.468 21.8 101.704 21.868 101.848 22.004C102 22.132 102.076 22.348 102.076 22.652C102.076 22.82 102.052 23.052 102.004 23.348C101.956 23.636 101.896 23.952 101.824 24.296C101.752 24.64 101.676 24.988 101.596 25.34C101.524 25.684 101.464 25.996 101.416 26.276C101.368 26.556 101.344 26.776 101.344 26.936C101.344 27.232 101.42 27.456 101.572 27.608C101.732 27.76 101.924 27.836 102.148 27.836C102.404 27.836 102.672 27.74 102.952 27.548C103.232 27.356 103.464 27.076 103.648 26.708C103.68 26.532 103.72 26.312 103.768 26.048C103.824 25.784 103.884 25.504 103.948 25.208C104.02 24.904 104.084 24.616 104.14 24.344C104.204 24.064 104.26 23.828 104.308 23.636L103.588 22.676C103.932 22.428 104.3 22.22 104.692 22.052C105.084 21.884 105.484 21.8 105.892 21.8C106.252 21.8 106.508 21.868 106.66 22.004C106.82 22.132 106.9 22.348 106.9 22.652C106.9 22.82 106.868 23.052 106.804 23.348C106.748 23.644 106.676 23.976 106.588 24.344C106.508 24.704 106.424 25.08 106.336 25.472C106.248 25.864 106.172 26.248 106.108 26.624C106.052 26.992 106.024 27.324 106.024 27.62C106.024 27.86 106.052 28.076 106.108 28.268C106.172 28.452 106.268 28.6 106.396 28.712C105.948 29.104 105.472 29.3 104.968 29.3C104.456 29.3 104.1 29.184 103.9 28.952C103.7 28.72 103.6 28.444 103.6 28.124L103.48 28.064C103.216 28.456 102.848 28.76 102.376 28.976C101.904 29.192 101.404 29.3 100.876 29.3ZM111.3 29.3C110.604 29.3 110 29.168 109.488 28.904C108.984 28.632 108.592 28.26 108.312 27.788C108.04 27.316 107.904 26.768 107.904 26.144C107.904 25.496 108.02 24.908 108.252 24.38C108.484 23.844 108.812 23.384 109.236 23C109.66 22.616 110.152 22.32 110.712 22.112C111.28 21.904 111.892 21.8 112.548 21.8C113.26 21.8 113.808 21.936 114.192 22.208C114.584 22.472 114.78 22.804 114.78 23.204C114.78 23.588 114.64 23.88 114.36 24.08C114.088 24.28 113.776 24.38 113.424 24.38C113.184 24.38 112.932 24.3 112.668 24.14C112.404 23.98 112.192 23.732 112.032 23.396C111.68 23.54 111.38 23.764 111.132 24.068C110.892 24.364 110.708 24.696 110.58 25.064C110.46 25.424 110.4 25.78 110.4 26.132C110.4 26.604 110.5 27.012 110.7 27.356C110.9 27.692 111.196 27.86 111.588 27.86C111.86 27.86 112.108 27.756 112.332 27.548C112.556 27.332 112.668 26.992 112.668 26.528C113.212 26.528 113.64 26.588 113.952 26.708C114.264 26.828 114.42 27.044 114.42 27.356C114.42 27.644 114.292 27.94 114.036 28.244C113.78 28.54 113.42 28.792 112.956 29C112.492 29.2 111.94 29.3 111.3 29.3ZM117.741 29.3C117.229 29.3 116.865 29.148 116.649 28.844C116.433 28.54 116.325 28.076 116.325 27.452C116.325 27.276 116.345 27.028 116.385 26.708C116.425 26.38 116.477 26.016 116.541 25.616C116.613 25.216 116.681 24.82 116.745 24.428C116.577 24.46 116.413 24.496 116.253 24.536C116.101 24.576 115.957 24.62 115.821 24.668C115.789 24.548 115.765 24.428 115.749 24.308C115.741 24.188 115.737 24.1 115.737 24.044C115.737 23.628 115.857 23.328 116.097 23.144C116.345 22.952 116.641 22.856 116.985 22.856C116.985 22.672 116.961 22.468 116.913 22.244C116.865 22.02 116.781 21.772 116.661 21.5C116.997 21.252 117.333 21.044 117.669 20.876C118.005 20.708 118.377 20.624 118.785 20.624C119.137 20.624 119.381 20.692 119.517 20.828C119.653 20.956 119.721 21.172 119.721 21.476C119.721 21.628 119.705 21.808 119.673 22.016C119.641 22.224 119.601 22.452 119.553 22.7C119.729 22.676 119.897 22.648 120.057 22.616C120.217 22.576 120.373 22.536 120.525 22.496C120.557 22.584 120.577 22.676 120.585 22.772C120.601 22.86 120.609 22.948 120.609 23.036C120.609 23.356 120.509 23.636 120.309 23.876C120.117 24.108 119.817 24.224 119.409 24.224H119.229C119.117 24.736 119.017 25.26 118.929 25.796C118.841 26.332 118.797 26.832 118.797 27.296C118.797 27.608 118.825 27.888 118.881 28.136C118.945 28.376 119.041 28.568 119.169 28.712C118.721 29.104 118.245 29.3 117.741 29.3ZM123.64 21.02C123.272 21.02 122.968 20.94 122.728 20.78C122.488 20.62 122.368 20.404 122.368 20.132C122.368 19.868 122.456 19.652 122.632 19.484C122.808 19.308 123.02 19.176 123.268 19.088C123.524 19 123.764 18.956 123.988 18.956C124.356 18.956 124.66 19.036 124.9 19.196C125.14 19.348 125.26 19.564 125.26 19.844C125.26 20.076 125.184 20.284 125.032 20.468C124.88 20.644 124.68 20.78 124.432 20.876C124.192 20.972 123.928 21.02 123.64 21.02ZM122.92 29.3C122.408 29.3 122.044 29.172 121.828 28.916C121.612 28.66 121.504 28.292 121.504 27.812C121.504 27.636 121.528 27.392 121.576 27.08C121.624 26.76 121.688 26.408 121.768 26.024C121.848 25.632 121.932 25.236 122.02 24.836C122.108 24.436 122.192 24.06 122.272 23.708L121.6 22.7C122.024 22.444 122.428 22.232 122.812 22.064C123.196 21.888 123.58 21.8 123.964 21.8C124.3 21.8 124.532 21.872 124.66 22.016C124.796 22.16 124.864 22.384 124.864 22.688C124.864 22.808 124.832 23.004 124.768 23.276C124.712 23.548 124.64 23.868 124.552 24.236C124.464 24.604 124.376 24.992 124.288 25.4C124.2 25.8 124.124 26.196 124.06 26.588C124.004 26.972 123.976 27.316 123.976 27.62C123.976 27.86 124.004 28.076 124.06 28.268C124.124 28.452 124.22 28.6 124.348 28.712C123.9 29.104 123.424 29.3 122.92 29.3ZM128.76 29.3C127.96 29.3 127.384 29.176 127.032 28.928C126.688 28.672 126.516 28.256 126.516 27.68C126.516 27.152 126.524 26.588 126.54 25.988C126.556 25.38 126.564 24.844 126.564 24.38C126.564 23.836 126.5 23.404 126.372 23.084C126.252 22.756 126.1 22.5 125.916 22.316C126.332 21.972 126.788 21.8 127.284 21.8C127.732 21.8 128.072 21.932 128.304 22.196C128.536 22.452 128.692 22.804 128.772 23.252C128.86 23.7 128.904 24.2 128.904 24.752C128.904 25.048 128.9 25.384 128.892 25.76C128.892 26.128 128.888 26.496 128.88 26.864C128.872 27.224 128.86 27.548 128.844 27.836H129.252C129.428 27.46 129.62 27.048 129.828 26.6C130.036 26.144 130.236 25.684 130.428 25.22C130.62 24.748 130.776 24.308 130.896 23.9C131.016 23.484 131.076 23.136 131.076 22.856C131.076 22.744 131.064 22.644 131.04 22.556C131.024 22.468 131 22.388 130.968 22.316C131.272 22.14 131.56 22.012 131.832 21.932C132.112 21.844 132.36 21.8 132.576 21.8C132.92 21.8 133.16 21.904 133.296 22.112C133.44 22.32 133.512 22.592 133.512 22.928C133.512 23.216 133.448 23.56 133.32 23.96C133.2 24.36 133.048 24.78 132.864 25.22C132.68 25.652 132.496 26.068 132.312 26.468C132.128 26.86 131.98 27.196 131.868 27.476L132.024 28.172C131.808 28.364 131.52 28.548 131.16 28.724C130.808 28.892 130.42 29.028 129.996 29.132C129.58 29.244 129.168 29.3 128.76 29.3ZM137.785 29.3C137.041 29.3 136.413 29.168 135.901 28.904C135.389 28.64 135.001 28.272 134.737 27.8C134.481 27.32 134.353 26.768 134.353 26.144C134.353 25.496 134.469 24.908 134.701 24.38C134.941 23.844 135.273 23.384 135.697 23C136.121 22.616 136.613 22.32 137.173 22.112C137.741 21.904 138.353 21.8 139.009 21.8C139.785 21.8 140.357 21.972 140.725 22.316C141.093 22.66 141.277 23.092 141.277 23.612C141.277 24.06 141.129 24.484 140.833 24.884C140.545 25.276 140.077 25.596 139.429 25.844C138.781 26.084 137.917 26.208 136.837 26.216C136.861 26.728 136.977 27.132 137.185 27.428C137.401 27.716 137.669 27.86 137.989 27.86C138.149 27.86 138.317 27.824 138.493 27.752C138.669 27.672 138.817 27.536 138.937 27.344C139.057 27.144 139.117 26.872 139.117 26.528C139.661 26.528 140.089 26.588 140.401 26.708C140.713 26.828 140.869 27.044 140.869 27.356C140.869 27.644 140.745 27.94 140.497 28.244C140.249 28.54 139.893 28.792 139.429 29C138.973 29.2 138.425 29.3 137.785 29.3ZM136.945 25.256C137.529 25.208 137.997 25.1 138.349 24.932C138.701 24.764 138.957 24.572 139.117 24.356C139.277 24.14 139.357 23.94 139.357 23.756C139.357 23.596 139.309 23.464 139.213 23.36C139.117 23.256 138.981 23.204 138.805 23.204C138.517 23.204 138.249 23.304 138.001 23.504C137.753 23.704 137.537 23.964 137.353 24.284C137.177 24.596 137.041 24.92 136.945 25.256ZM2.55701 47.3C2.04501 47.3 1.68101 47.148 1.46501 46.844C1.24901 46.54 1.14101 46.076 1.14101 45.452C1.14101 45.276 1.16101 45.028 1.20101 44.708C1.24101 44.38 1.29301 44.016 1.35701 43.616C1.42901 43.216 1.49701 42.82 1.56101 42.428C1.39301 42.46 1.22901 42.496 1.06901 42.536C0.917008 42.576 0.773008 42.62 0.637008 42.668C0.605008 42.548 0.581008 42.428 0.565008 42.308C0.557008 42.188 0.553008 42.1 0.553008 42.044C0.553008 41.628 0.673008 41.328 0.913008 41.144C1.16101 40.952 1.45701 40.856 1.80101 40.856C1.80101 40.672 1.77701 40.468 1.72901 40.244C1.68101 40.02 1.59701 39.772 1.47701 39.5C1.81301 39.252 2.14901 39.044 2.48501 38.876C2.82101 38.708 3.19301 38.624 3.60101 38.624C3.95301 38.624 4.19701 38.692 4.33301 38.828C4.46901 38.956 4.53701 39.172 4.53701 39.476C4.53701 39.628 4.52101 39.808 4.48901 40.016C4.45701 40.224 4.41701 40.452 4.36901 40.7C4.54501 40.676 4.71301 40.648 4.87301 40.616C5.03301 40.576 5.18901 40.536 5.34101 40.496C5.37301 40.584 5.39301 40.676 5.40101 40.772C5.41701 40.86 5.42501 40.948 5.42501 41.036C5.42501 41.356 5.32501 41.636 5.12501 41.876C4.93301 42.108 4.63301 42.224 4.22501 42.224H4.04501C3.93301 42.736 3.83301 43.26 3.74501 43.796C3.65701 44.332 3.61301 44.832 3.61301 45.296C3.61301 45.608 3.64101 45.888 3.69701 46.136C3.76101 46.376 3.85701 46.568 3.98501 46.712C3.53701 47.104 3.06101 47.3 2.55701 47.3ZM7.78404 47.3C7.28004 47.3 6.92004 47.172 6.70404 46.916C6.48804 46.66 6.38004 46.292 6.38004 45.812C6.38004 45.572 6.40004 45.26 6.44004 44.876C6.48804 44.492 6.54804 44.068 6.62004 43.604C6.69204 43.132 6.77204 42.652 6.86004 42.164C6.94804 41.668 7.03204 41.196 7.11204 40.748C7.19204 40.292 7.26404 39.888 7.32804 39.536L6.65604 38.576C7.08004 38.328 7.48404 38.12 7.86804 37.952C8.25204 37.784 8.63604 37.7 9.02004 37.7C9.35604 37.7 9.58804 37.768 9.71604 37.904C9.85204 38.032 9.92004 38.248 9.92004 38.552C9.92004 38.88 9.90004 39.22 9.86004 39.572C9.82804 39.916 9.78404 40.248 9.72804 40.568C9.67204 40.888 9.61604 41.168 9.56004 41.408C9.51204 41.648 9.47204 41.824 9.44004 41.936L9.56004 41.996C10.032 41.188 10.548 40.62 11.108 40.292C11.668 39.964 12.24 39.8 12.824 39.8C13.312 39.8 13.676 39.92 13.916 40.16C14.156 40.392 14.276 40.756 14.276 41.252C14.276 41.684 14.216 42.144 14.096 42.632C13.984 43.112 13.868 43.608 13.748 44.12C13.628 44.624 13.568 45.124 13.568 45.62C13.568 46.116 13.652 46.48 13.82 46.712C13.396 47.104 12.956 47.3 12.5 47.3C11.996 47.3 11.636 47.172 11.42 46.916C11.204 46.66 11.096 46.292 11.096 45.812C11.096 45.548 11.132 45.256 11.204 44.936C11.276 44.608 11.36 44.276 11.456 43.94C11.552 43.604 11.636 43.288 11.708 42.992C11.78 42.696 11.816 42.44 11.816 42.224C11.816 42.056 11.784 41.924 11.72 41.828C11.664 41.732 11.56 41.684 11.408 41.684C11.192 41.684 10.94 41.78 10.652 41.972C10.364 42.164 10.08 42.436 9.80004 42.788C9.52804 43.132 9.30004 43.544 9.11604 44.024C8.94004 44.504 8.85204 45.036 8.85204 45.62C8.85204 46.116 8.93604 46.48 9.10404 46.712C8.68004 47.104 8.24004 47.3 7.78404 47.3ZM17.7373 39.02C17.3693 39.02 17.0653 38.94 16.8253 38.78C16.5853 38.62 16.4653 38.404 16.4653 38.132C16.4653 37.868 16.5533 37.652 16.7293 37.484C16.9053 37.308 17.1173 37.176 17.3653 37.088C17.6213 37 17.8613 36.956 18.0853 36.956C18.4533 36.956 18.7573 37.036 18.9973 37.196C19.2373 37.348 19.3573 37.564 19.3573 37.844C19.3573 38.076 19.2813 38.284 19.1293 38.468C18.9773 38.644 18.7773 38.78 18.5293 38.876C18.2893 38.972 18.0253 39.02 17.7373 39.02ZM17.0173 47.3C16.5053 47.3 16.1413 47.172 15.9253 46.916C15.7093 46.66 15.6013 46.292 15.6013 45.812C15.6013 45.636 15.6253 45.392 15.6733 45.08C15.7213 44.76 15.7853 44.408 15.8653 44.024C15.9453 43.632 16.0293 43.236 16.1173 42.836C16.2053 42.436 16.2893 42.06 16.3693 41.708L15.6973 40.7C16.1213 40.444 16.5253 40.232 16.9093 40.064C17.2933 39.888 17.6773 39.8 18.0613 39.8C18.3973 39.8 18.6293 39.872 18.7573 40.016C18.8933 40.16 18.9613 40.384 18.9613 40.688C18.9613 40.808 18.9293 41.004 18.8653 41.276C18.8093 41.548 18.7373 41.868 18.6493 42.236C18.5613 42.604 18.4733 42.992 18.3853 43.4C18.2973 43.8 18.2213 44.196 18.1573 44.588C18.1013 44.972 18.0733 45.316 18.0733 45.62C18.0733 45.86 18.1013 46.076 18.1573 46.268C18.2213 46.452 18.3173 46.6 18.4453 46.712C17.9973 47.104 17.5213 47.3 17.0173 47.3ZM21.5376 47.3C21.0336 47.3 20.6736 47.172 20.4576 46.916C20.2416 46.66 20.1336 46.292 20.1336 45.812C20.1336 45.644 20.1576 45.388 20.2056 45.044C20.2536 44.692 20.3136 44.304 20.3856 43.88C20.4656 43.448 20.5496 43.016 20.6376 42.584C20.7256 42.152 20.8096 41.768 20.8896 41.432L20.2656 40.472C20.5936 40.288 20.9456 40.132 21.3216 40.004C21.7056 39.868 22.0936 39.8 22.4856 39.8C22.8216 39.8 23.0696 39.884 23.2296 40.052C23.3896 40.212 23.4696 40.432 23.4696 40.712C23.4696 40.92 23.4416 41.136 23.3856 41.36C23.3296 41.584 23.2656 41.776 23.1936 41.936L23.3136 41.996C23.7856 41.188 24.3016 40.62 24.8616 40.292C25.4216 39.964 25.9936 39.8 26.5776 39.8C27.0656 39.8 27.4296 39.92 27.6696 40.16C27.9096 40.392 28.0296 40.756 28.0296 41.252C28.0296 41.684 27.9696 42.144 27.8496 42.632C27.7376 43.112 27.6216 43.608 27.5016 44.12C27.3816 44.624 27.3216 45.124 27.3216 45.62C27.3216 46.116 27.4056 46.48 27.5736 46.712C27.1496 47.104 26.7096 47.3 26.2536 47.3C25.7496 47.3 25.3896 47.172 25.1736 46.916C24.9576 46.66 24.8496 46.292 24.8496 45.812C24.8496 45.548 24.8856 45.256 24.9576 44.936C25.0296 44.608 25.1136 44.276 25.2096 43.94C25.3056 43.604 25.3896 43.288 25.4616 42.992C25.5336 42.696 25.5696 42.44 25.5696 42.224C25.5696 42.056 25.5376 41.924 25.4736 41.828C25.4176 41.732 25.3136 41.684 25.1616 41.684C24.9456 41.684 24.6936 41.78 24.4056 41.972C24.1176 42.164 23.8336 42.436 23.5536 42.788C23.2816 43.132 23.0536 43.544 22.8696 44.024C22.6936 44.504 22.6056 45.036 22.6056 45.62C22.6056 46.116 22.6896 46.48 22.8576 46.712C22.4336 47.104 21.9936 47.3 21.5376 47.3ZM31.3274 49.82C30.9594 49.82 30.6234 49.768 30.3194 49.664C30.0154 49.56 29.7714 49.408 29.5874 49.208C29.4114 49.008 29.3234 48.768 29.3234 48.488C29.3234 48.312 29.3594 48.12 29.4314 47.912C29.5114 47.704 29.6394 47.484 29.8154 47.252C29.9994 47.516 30.2234 47.716 30.4874 47.852C30.7594 47.996 31.0874 48.068 31.4714 48.068C31.7594 48.068 32.0514 47.984 32.3474 47.816C32.6434 47.648 32.9074 47.384 33.1394 47.024C33.3714 46.672 33.5354 46.212 33.6314 45.644L33.5114 45.584C33.2154 46.024 32.8714 46.344 32.4794 46.544C32.0874 46.736 31.7034 46.832 31.3274 46.832C30.8794 46.832 30.4914 46.712 30.1634 46.472C29.8434 46.232 29.5954 45.9 29.4194 45.476C29.2514 45.044 29.1674 44.544 29.1674 43.976C29.1674 43.504 29.2554 43.024 29.4314 42.536C29.6074 42.04 29.8794 41.588 30.2474 41.18C30.6154 40.764 31.0834 40.432 31.6514 40.184C32.2274 39.928 32.9154 39.8 33.7154 39.8C33.8754 39.8 34.0274 39.808 34.1714 39.824C34.3234 39.832 34.4874 39.856 34.6634 39.896C34.6794 39.976 34.6954 40.068 34.7114 40.172C34.7274 40.268 34.7394 40.372 34.7474 40.484C34.9394 40.348 35.1314 40.252 35.3234 40.196C35.5234 40.132 35.7114 40.1 35.8874 40.1C36.1834 40.1 36.3954 40.176 36.5234 40.328C36.6514 40.472 36.7154 40.696 36.7154 41C36.7154 41.496 36.6794 42.056 36.6074 42.68C36.5354 43.304 36.4194 43.948 36.2594 44.612C36.0994 45.276 35.8834 45.916 35.6114 46.532C35.3474 47.148 35.0154 47.704 34.6154 48.2C34.2234 48.696 33.7554 49.088 33.2114 49.376C32.6674 49.672 32.0394 49.82 31.3274 49.82ZM32.6234 45.008C32.8234 45.008 33.0314 44.956 33.2474 44.852C33.4634 44.748 33.6634 44.584 33.8474 44.36C33.9434 43.84 34.0354 43.284 34.1234 42.692C34.2114 42.1 34.2954 41.532 34.3754 40.988C33.7594 40.988 33.2314 41.112 32.7914 41.36C32.3514 41.608 32.0154 41.936 31.7834 42.344C31.5514 42.744 31.4354 43.176 31.4354 43.64C31.4354 44.056 31.5514 44.388 31.7834 44.636C32.0234 44.884 32.3034 45.008 32.6234 45.008ZM43.3672 49.82C42.8152 49.82 42.3512 49.7 41.9752 49.46C41.5992 49.22 41.4112 48.884 41.4112 48.452C41.4112 48.276 41.4472 48.088 41.5192 47.888C41.5912 47.688 41.7032 47.476 41.8552 47.252C42.0392 47.516 42.2592 47.716 42.5152 47.852C42.7712 47.996 43.0312 48.068 43.2952 48.068C43.6072 48.068 43.9072 47.964 44.1952 47.756C44.4832 47.548 44.7152 47.216 44.8912 46.76C44.6912 46.832 44.5032 46.884 44.3272 46.916C44.1512 46.948 43.9832 46.964 43.8232 46.964C43.4072 46.964 43.0712 46.856 42.8152 46.64C42.5592 46.416 42.4112 46.096 42.3712 45.68C42.3152 45.152 42.2792 44.604 42.2632 44.036C42.2472 43.468 42.2152 42.952 42.1672 42.488C42.1112 41.944 41.9952 41.492 41.8192 41.132C41.6432 40.772 41.4392 40.5 41.2072 40.316C41.3992 40.14 41.5992 40.012 41.8072 39.932C42.0232 39.844 42.2952 39.8 42.6232 39.8C43.0232 39.8 43.3472 39.92 43.5952 40.16C43.8512 40.4 44.0472 40.74 44.1832 41.18C44.3192 41.612 44.4112 42.12 44.4592 42.704C44.5152 43.28 44.5432 43.908 44.5432 44.588C44.5432 44.684 44.5392 44.832 44.5312 45.032C44.5312 45.232 44.5232 45.432 44.5072 45.632H45.2032C45.3312 45.28 45.4672 44.904 45.6112 44.504C45.7552 44.104 45.8872 43.7 46.0072 43.292C46.1352 42.876 46.2392 42.48 46.3192 42.104C46.3992 41.72 46.4392 41.38 46.4392 41.084C46.4392 40.908 46.4192 40.76 46.3792 40.64C46.3472 40.52 46.3072 40.412 46.2592 40.316C46.5392 40.14 46.8152 40.012 47.0872 39.932C47.3592 39.844 47.6032 39.8 47.8192 39.8C48.1872 39.8 48.4552 39.924 48.6232 40.172C48.7992 40.42 48.8872 40.744 48.8872 41.144C48.8872 41.44 48.8432 41.784 48.7552 42.176C48.6672 42.56 48.5552 42.96 48.4192 43.376C48.2912 43.784 48.1592 44.172 48.0232 44.54C47.8952 44.908 47.7872 45.22 47.6992 45.476C47.3152 46.58 46.8832 47.448 46.4032 48.08C45.9312 48.712 45.4352 49.16 44.9152 49.424C44.4032 49.688 43.8872 49.82 43.3672 49.82ZM53.187 47.3C52.483 47.3 51.875 47.168 51.363 46.904C50.859 46.632 50.471 46.26 50.199 45.788C49.927 45.316 49.791 44.768 49.791 44.144C49.791 43.28 49.979 42.524 50.355 41.876C50.739 41.22 51.263 40.712 51.927 40.352C52.591 39.984 53.347 39.8 54.195 39.8C54.331 39.8 54.467 39.808 54.603 39.824C54.747 39.832 54.899 39.856 55.059 39.896C55.099 40.008 55.131 40.144 55.155 40.304C55.179 40.456 55.195 40.62 55.203 40.796C55.275 40.772 55.351 40.752 55.431 40.736C55.519 40.72 55.611 40.712 55.707 40.712C55.987 40.712 56.251 40.788 56.499 40.94C56.747 41.084 56.951 41.312 57.111 41.624C57.271 41.936 57.351 42.332 57.351 42.812C57.351 43.524 57.231 44.16 56.991 44.72C56.759 45.272 56.443 45.74 56.043 46.124C55.643 46.508 55.195 46.8 54.699 47C54.211 47.2 53.707 47.3 53.187 47.3ZM53.559 45.824C53.743 45.824 53.935 45.78 54.135 45.692C54.335 45.604 54.531 45.444 54.723 45.212C54.915 44.98 55.075 44.652 55.203 44.228C54.859 44.012 54.611 43.748 54.459 43.436C54.307 43.116 54.231 42.764 54.231 42.38C54.231 42.268 54.251 42.124 54.291 41.948C54.331 41.772 54.399 41.592 54.495 41.408C54.599 41.224 54.739 41.072 54.915 40.952C54.363 41.064 53.911 41.232 53.559 41.456C53.207 41.68 52.931 41.94 52.731 42.236C52.539 42.524 52.403 42.824 52.323 43.136C52.251 43.44 52.215 43.732 52.215 44.012C52.215 44.332 52.267 44.632 52.371 44.912C52.475 45.184 52.627 45.404 52.827 45.572C53.027 45.74 53.271 45.824 53.559 45.824ZM60.5051 47.3C60.0091 47.3 59.6211 47.212 59.3411 47.036C59.0691 46.868 58.8771 46.64 58.7651 46.352C58.6611 46.056 58.6091 45.724 58.6091 45.356C58.6091 44.932 58.6531 44.488 58.7411 44.024C58.8291 43.552 58.9171 43.096 59.0051 42.656C59.0931 42.208 59.1371 41.816 59.1371 41.48C59.1371 40.984 59.0531 40.62 58.8851 40.388C59.2131 40.212 59.5531 40.072 59.9051 39.968C60.2651 39.856 60.5531 39.8 60.7691 39.8C61.0971 39.8 61.3331 39.868 61.4771 40.004C61.6291 40.132 61.7051 40.348 61.7051 40.652C61.7051 40.82 61.6811 41.052 61.6331 41.348C61.5851 41.636 61.5251 41.952 61.4531 42.296C61.3811 42.64 61.3051 42.988 61.2251 43.34C61.1531 43.684 61.0931 43.996 61.0451 44.276C60.9971 44.556 60.9731 44.776 60.9731 44.936C60.9731 45.232 61.0491 45.456 61.2011 45.608C61.3611 45.76 61.5531 45.836 61.7771 45.836C62.0331 45.836 62.3011 45.74 62.5811 45.548C62.8611 45.356 63.0931 45.076 63.2771 44.708C63.3091 44.532 63.3491 44.312 63.3971 44.048C63.4531 43.784 63.5131 43.504 63.5771 43.208C63.6491 42.904 63.7131 42.616 63.7691 42.344C63.8331 42.064 63.8891 41.828 63.9371 41.636L63.2171 40.676C63.5611 40.428 63.9291 40.22 64.3211 40.052C64.7131 39.884 65.1131 39.8 65.5211 39.8C65.8811 39.8 66.1371 39.868 66.2891 40.004C66.4491 40.132 66.5291 40.348 66.5291 40.652C66.5291 40.82 66.4971 41.052 66.4331 41.348C66.3771 41.644 66.3051 41.976 66.2171 42.344C66.1371 42.704 66.0531 43.08 65.9651 43.472C65.8771 43.864 65.8011 44.248 65.7371 44.624C65.6811 44.992 65.6531 45.324 65.6531 45.62C65.6531 45.86 65.6811 46.076 65.7371 46.268C65.8011 46.452 65.8971 46.6 66.0251 46.712C65.5771 47.104 65.1011 47.3 64.5971 47.3C64.0851 47.3 63.7291 47.184 63.5291 46.952C63.3291 46.72 63.2291 46.444 63.2291 46.124L63.1091 46.064C62.8451 46.456 62.4771 46.76 62.0051 46.976C61.5331 47.192 61.0331 47.3 60.5051 47.3ZM74.5268 47.3C73.8308 47.3 73.2268 47.168 72.7148 46.904C72.2108 46.632 71.8188 46.26 71.5388 45.788C71.2668 45.316 71.1308 44.768 71.1308 44.144C71.1308 43.496 71.2468 42.908 71.4788 42.38C71.7108 41.844 72.0388 41.384 72.4628 41C72.8868 40.616 73.3788 40.32 73.9388 40.112C74.5068 39.904 75.1188 39.8 75.7748 39.8C76.4868 39.8 77.0348 39.936 77.4188 40.208C77.8108 40.472 78.0068 40.804 78.0068 41.204C78.0068 41.588 77.8668 41.88 77.5868 42.08C77.3148 42.28 77.0028 42.38 76.6508 42.38C76.4108 42.38 76.1588 42.3 75.8948 42.14C75.6308 41.98 75.4188 41.732 75.2588 41.396C74.9068 41.54 74.6068 41.764 74.3588 42.068C74.1188 42.364 73.9348 42.696 73.8068 43.064C73.6868 43.424 73.6268 43.78 73.6268 44.132C73.6268 44.604 73.7268 45.012 73.9268 45.356C74.1268 45.692 74.4228 45.86 74.8148 45.86C75.0868 45.86 75.3348 45.756 75.5588 45.548C75.7828 45.332 75.8948 44.992 75.8948 44.528C76.4388 44.528 76.8668 44.588 77.1788 44.708C77.4908 44.828 77.6468 45.044 77.6468 45.356C77.6468 45.644 77.5188 45.94 77.2628 46.244C77.0068 46.54 76.6468 46.792 76.1828 47C75.7188 47.2 75.1668 47.3 74.5268 47.3ZM80.9672 47.3C80.5192 47.3 80.1232 47.184 79.7792 46.952C79.4432 46.72 79.1832 46.392 78.9992 45.968C78.8152 45.544 78.7232 45.048 78.7232 44.48C78.7232 43.816 78.8392 43.2 79.0712 42.632C79.3112 42.064 79.6392 41.568 80.0552 41.144C80.4792 40.72 80.9752 40.392 81.5432 40.16C82.1112 39.92 82.7272 39.8 83.3912 39.8C83.5832 39.8 83.7472 39.808 83.8832 39.824C84.0272 39.832 84.1792 39.856 84.3392 39.896C84.3872 40.12 84.4152 40.316 84.4232 40.484C84.6072 40.364 84.8112 40.272 85.0352 40.208C85.2592 40.136 85.4672 40.1 85.6592 40.1C86.2432 40.1 86.5352 40.416 86.5352 41.048C86.5352 41.256 86.4952 41.54 86.4152 41.9C86.3432 42.252 86.2552 42.644 86.1512 43.076C86.0552 43.5 85.9672 43.936 85.8872 44.384C85.8152 44.824 85.7792 45.236 85.7792 45.62C85.7792 46.14 85.9032 46.504 86.1512 46.712C85.7032 47.104 85.2272 47.3 84.7232 47.3C84.2592 47.3 83.9152 47.156 83.6912 46.868C83.4752 46.58 83.3672 46.132 83.3672 45.524L83.2472 45.464C83.0312 46.04 82.7192 46.492 82.3112 46.82C81.9112 47.14 81.4632 47.3 80.9672 47.3ZM81.9152 45.116C82.2272 45.116 82.5312 45.004 82.8272 44.78C83.1232 44.556 83.3712 44.248 83.5712 43.856C83.6032 43.544 83.6352 43.252 83.6672 42.98C83.7072 42.7 83.7552 42.404 83.8112 42.092C83.8752 41.78 83.9512 41.412 84.0392 40.988C83.6312 40.988 83.2432 41.068 82.8752 41.228C82.5152 41.38 82.1912 41.592 81.9032 41.864C81.6152 42.136 81.3872 42.448 81.2192 42.8C81.0592 43.144 80.9792 43.508 80.9792 43.892C80.9792 44.284 81.0592 44.588 81.2192 44.804C81.3872 45.012 81.6192 45.116 81.9152 45.116ZM89.1431 47.3C88.6391 47.3 88.2791 47.172 88.0631 46.916C87.8471 46.66 87.7391 46.292 87.7391 45.812C87.7391 45.644 87.7631 45.388 87.8111 45.044C87.8591 44.692 87.9191 44.304 87.9911 43.88C88.0711 43.448 88.1551 43.016 88.2431 42.584C88.3311 42.152 88.4151 41.768 88.4951 41.432L87.8711 40.472C88.1991 40.288 88.5511 40.132 88.9271 40.004C89.3111 39.868 89.6991 39.8 90.0911 39.8C90.4271 39.8 90.6751 39.884 90.8351 40.052C90.9951 40.212 91.0751 40.432 91.0751 40.712C91.0751 40.92 91.0471 41.136 90.9911 41.36C90.9351 41.584 90.8711 41.776 90.7991 41.936L90.9191 41.996C91.3911 41.188 91.9071 40.62 92.4671 40.292C93.0271 39.964 93.5991 39.8 94.1831 39.8C94.6711 39.8 95.0351 39.92 95.2751 40.16C95.5151 40.392 95.6351 40.756 95.6351 41.252C95.6351 41.684 95.5751 42.144 95.4551 42.632C95.3431 43.112 95.2271 43.608 95.1071 44.12C94.9871 44.624 94.9271 45.124 94.9271 45.62C94.9271 46.116 95.0111 46.48 95.1791 46.712C94.7551 47.104 94.3151 47.3 93.8591 47.3C93.3551 47.3 92.9951 47.172 92.7791 46.916C92.5631 46.66 92.4551 46.292 92.4551 45.812C92.4551 45.548 92.4911 45.256 92.5631 44.936C92.6351 44.608 92.7191 44.276 92.8151 43.94C92.9111 43.604 92.9951 43.288 93.0671 42.992C93.1391 42.696 93.1751 42.44 93.1751 42.224C93.1751 42.056 93.1431 41.924 93.0791 41.828C93.0231 41.732 92.9191 41.684 92.7671 41.684C92.5511 41.684 92.2991 41.78 92.0111 41.972C91.7231 42.164 91.4391 42.436 91.1591 42.788C90.8871 43.132 90.6591 43.544 90.4751 44.024C90.2991 44.504 90.2111 45.036 90.2111 45.62C90.2111 46.116 90.2951 46.48 90.4631 46.712C90.0391 47.104 89.5991 47.3 89.1431 47.3ZM102.603 47.3C102.195 47.3 101.815 47.192 101.463 46.976C101.119 46.752 100.839 46.432 100.623 46.016C100.415 45.592 100.311 45.08 100.311 44.48C100.311 43.984 100.403 43.48 100.587 42.968C100.779 42.448 101.067 41.972 101.451 41.54C101.835 41.108 102.319 40.76 102.903 40.496C103.487 40.232 104.179 40.1 104.979 40.1C105.107 40.1 105.231 40.104 105.351 40.112C105.479 40.12 105.611 40.132 105.747 40.148C105.755 40.092 105.771 39.992 105.795 39.848C105.827 39.696 105.847 39.592 105.855 39.536L105.183 38.576C105.607 38.328 106.011 38.12 106.395 37.952C106.779 37.784 107.163 37.7 107.547 37.7C107.883 37.7 108.115 37.768 108.243 37.904C108.379 38.032 108.447 38.248 108.447 38.552C108.447 38.832 108.411 39.184 108.339 39.608C108.267 40.024 108.179 40.48 108.075 40.976C107.971 41.464 107.863 41.968 107.751 42.488C107.647 43.008 107.559 43.508 107.487 43.988C107.415 44.468 107.379 44.904 107.379 45.296C107.379 45.672 107.407 45.976 107.463 46.208C107.527 46.432 107.623 46.6 107.751 46.712C107.303 47.104 106.827 47.3 106.323 47.3C105.979 47.3 105.707 47.236 105.507 47.108C105.315 46.98 105.175 46.824 105.087 46.64C104.999 46.456 104.955 46.284 104.955 46.124L104.835 46.064C104.515 46.488 104.159 46.8 103.767 47C103.375 47.2 102.987 47.3 102.603 47.3ZM103.803 45.5C104.011 45.5 104.223 45.448 104.439 45.344C104.655 45.24 104.859 45.076 105.051 44.852C105.107 44.26 105.179 43.648 105.267 43.016C105.355 42.376 105.463 41.756 105.591 41.156C105.103 41.156 104.667 41.244 104.283 41.42C103.907 41.588 103.591 41.816 103.335 42.104C103.087 42.384 102.895 42.692 102.759 43.028C102.631 43.364 102.567 43.696 102.567 44.024C102.567 44.496 102.687 44.86 102.927 45.116C103.175 45.372 103.467 45.5 103.803 45.5ZM112.683 47.3C111.979 47.3 111.371 47.168 110.859 46.904C110.355 46.632 109.967 46.26 109.695 45.788C109.423 45.316 109.287 44.768 109.287 44.144C109.287 43.28 109.475 42.524 109.851 41.876C110.235 41.22 110.759 40.712 111.423 40.352C112.087 39.984 112.843 39.8 113.691 39.8C113.827 39.8 113.963 39.808 114.099 39.824C114.243 39.832 114.395 39.856 114.555 39.896C114.595 40.008 114.627 40.144 114.651 40.304C114.675 40.456 114.691 40.62 114.699 40.796C114.771 40.772 114.847 40.752 114.927 40.736C115.015 40.72 115.107 40.712 115.203 40.712C115.483 40.712 115.747 40.788 115.995 40.94C116.243 41.084 116.447 41.312 116.607 41.624C116.767 41.936 116.847 42.332 116.847 42.812C116.847 43.524 116.727 44.16 116.487 44.72C116.255 45.272 115.939 45.74 115.539 46.124C115.139 46.508 114.691 46.8 114.195 47C113.707 47.2 113.203 47.3 112.683 47.3ZM113.055 45.824C113.239 45.824 113.431 45.78 113.631 45.692C113.831 45.604 114.027 45.444 114.219 45.212C114.411 44.98 114.571 44.652 114.699 44.228C114.355 44.012 114.107 43.748 113.955 43.436C113.803 43.116 113.727 42.764 113.727 42.38C113.727 42.268 113.747 42.124 113.787 41.948C113.827 41.772 113.895 41.592 113.991 41.408C114.095 41.224 114.235 41.072 114.411 40.952C113.859 41.064 113.407 41.232 113.055 41.456C112.703 41.68 112.427 41.94 112.227 42.236C112.035 42.524 111.899 42.824 111.819 43.136C111.747 43.44 111.711 43.732 111.711 44.012C111.711 44.332 111.763 44.632 111.867 44.912C111.971 45.184 112.123 45.404 112.323 45.572C112.523 45.74 112.767 45.824 113.055 45.824ZM119.209 47.3C118.841 47.3 118.533 47.18 118.285 46.94C118.045 46.692 117.925 46.392 117.925 46.04C117.925 45.768 117.993 45.52 118.129 45.296C118.265 45.064 118.445 44.876 118.669 44.732C118.901 44.588 119.157 44.516 119.437 44.516C119.805 44.516 120.109 44.64 120.349 44.888C120.597 45.128 120.721 45.424 120.721 45.776C120.721 46.04 120.653 46.288 120.517 46.52C120.381 46.752 120.197 46.94 119.965 47.084C119.741 47.228 119.489 47.3 119.209 47.3ZM130.523 42.056C130.115 42.056 129.799 41.916 129.575 41.636C129.351 41.356 129.239 41.036 129.239 40.676C129.239 40.124 129.363 39.612 129.611 39.14C129.867 38.66 130.223 38.252 130.679 37.916C131.143 37.572 131.691 37.336 132.323 37.208L132.503 37.736C132.239 37.856 132.011 38.02 131.819 38.228C131.627 38.436 131.479 38.656 131.375 38.888C131.279 39.12 131.231 39.336 131.231 39.536L132.071 40.616C132.063 40.872 131.987 41.112 131.843 41.336C131.699 41.552 131.511 41.728 131.279 41.864C131.047 41.992 130.795 42.056 130.523 42.056ZM126.875 42.056C126.467 42.056 126.151 41.916 125.927 41.636C125.703 41.356 125.591 41.036 125.591 40.676C125.591 40.124 125.715 39.612 125.963 39.14C126.219 38.66 126.575 38.252 127.031 37.916C127.495 37.572 128.043 37.336 128.675 37.208L128.855 37.736C128.591 37.856 128.363 38.02 128.171 38.228C127.987 38.436 127.843 38.656 127.739 38.888C127.635 39.12 127.583 39.336 127.583 39.536L128.423 40.616C128.415 40.872 128.339 41.112 128.195 41.336C128.051 41.552 127.863 41.728 127.631 41.864C127.399 41.992 127.147 42.056 126.875 42.056Z" fill="#0065CA"/>
</svg>
